<?xml version="1.0" encoding="utf-8"?>
<!-- Generator: Adobe Illustrator 23.0.2, SVG Export Plug-In . SVG Version: 6.00 Build 0)  -->
<svg version="1.1" id="Layer_1" xmlns="http://www.w3.org/2000/svg" xmlns:xlink="http://www.w3.org/1999/xlink" x="0px" y="0px"
	 viewBox="0 0 396.24 432.24" style="enable-background:new 0 0 396.24 432.24;" xml:space="preserve">
<style type="text/css">
	.st0{fill:#FDFDFD;}
	.st1{fill:#EFEFEF;}
	.st2{fill:#EEEEEE;}
</style>
<g>
	<g>
		<path d="M16.27,200.88c0.02-5.34,0.04-10.69,0.07-16.03c0.04-0.19,0.1-0.38,0.1-0.58c0.03-5.18,0.05-10.37,0.07-15.55
			c0.02-5.34,0.04-10.69,0.07-16.03c0.04-0.19,0.1-0.38,0.1-0.58c0.03-5.18,0.05-10.37,0.07-15.55c0.02-5.34,0.04-10.69,0.07-16.03
			c0.04-0.43,0.09-0.86,0.1-1.29c0.06-3.58,0.11-7.16,0.16-10.75c2.85-1.7,5.68-3.43,8.55-5.1c6.54-3.82,13.09-7.61,19.63-11.44
			c6.44-3.78,12.86-7.6,19.29-11.39c6.37-3.75,12.77-7.47,19.15-11.21c6.41-3.76,12.81-7.53,19.22-11.3
			c6.43-3.79,12.85-7.59,19.28-11.37c5.82-3.43,11.63-6.86,17.46-10.27c5.33-3.12,10.69-6.19,16.02-9.32
			c4.75-2.79,9.47-5.65,14.22-8.44c4.75-2.79,9.53-5.52,14.29-8.3c4.27-2.49,8.52-5.03,12.8-7.5c0.35-0.21,1-0.3,1.32-0.11
			c6.81,3.91,13.59,7.89,20.39,11.82c7.45,4.3,14.93,8.54,22.37,12.84c8.64,4.99,17.25,10.03,25.89,15.02
			c8.57,4.95,17.17,9.85,25.75,14.8c8.47,4.89,16.91,9.83,25.38,14.72c7.04,4.06,14.1,8.07,21.14,12.13c6.91,3.98,13.8,8,20.7,11.99
			c5.91,3.42,11.83,6.85,17.75,10.26c1.19,0.68,2.41,1.3,3.62,1.95c0.06,0.58,0.18,1.17,0.18,1.75c0,2.93-0.04,5.86-0.06,8.79
			c-0.03,2.88-0.07,5.75-0.09,8.63c-0.08,12.79-0.16,25.59-0.24,38.38c-0.07,10.87-0.16,21.75-0.24,32.62
			c-0.08,10.27-0.16,20.55-0.24,30.82c-0.08,11.15-0.16,22.31-0.24,33.46c-0.08,10.63-0.16,21.27-0.24,31.9
			c-0.06,7.55-0.14,15.11-0.18,22.66c0,0.7-0.25,1.05-0.82,1.39c-21.3,12.49-42.58,25-63.87,37.5
			c-15.06,8.85-30.12,17.7-45.19,26.54c-10.61,6.22-21.24,12.4-31.85,18.62c-11.42,6.7-22.83,13.42-34.25,20.13
			c-1.42,0.83-2.81,1.73-4.28,2.47c-0.45,0.23-1.23,0.24-1.66,0c-3.49-1.95-6.94-3.98-10.39-5.99c-3.83-2.23-7.64-4.47-11.47-6.68
			c-3.89-2.24-7.81-4.44-11.7-6.68c-3.27-1.88-6.52-3.81-9.79-5.7c-4.52-2.61-9.05-5.19-13.56-7.8c-3.87-2.24-7.71-4.53-11.59-6.77
			c-3.88-2.24-7.79-4.43-11.68-6.66c-3.25-1.87-6.48-3.77-9.72-5.64c-4.54-2.63-9.09-5.24-13.64-7.87
			c-3.21-1.85-6.41-3.71-9.62-5.56c-3.96-2.28-7.93-4.56-11.89-6.84c-3.8-2.19-7.59-4.4-11.39-6.59c-3.96-2.28-7.92-4.55-11.88-6.84
			c-3.83-2.22-7.65-4.46-11.48-6.68c-3.92-2.26-7.86-4.49-11.79-6.75c-3.55-2.04-7.09-4.09-10.61-6.18
			c-0.24-0.15-0.38-0.65-0.39-0.99c-0.05-1.4-0.03-2.8-0.04-4.2c0.04-0.19,0.1-0.38,0.1-0.58c0.03-5.18,0.05-10.37,0.07-15.55
			c0.02-5.34,0.04-10.69,0.07-16.03c0.04-0.19,0.1-0.38,0.1-0.58c0.03-5.18,0.05-10.37,0.07-15.55c0.02-5.34,0.04-10.69,0.07-16.03
			c0.04-0.19,0.1-0.38,0.1-0.58c0.03-5.18,0.05-10.37,0.07-15.55c0.02-5.34,0.04-10.69,0.07-16.03c0.04-0.19,0.1-0.38,0.1-0.58
			C16.23,211.25,16.25,206.07,16.27,200.88z M21.89,193.19c-0.02,5.33-0.05,10.67-0.07,16c-0.03,0.23-0.09,0.47-0.09,0.7
			c-0.03,5.15-0.05,10.3-0.08,15.45c-0.02,5.33-0.05,10.67-0.07,16c-0.03,0.23-0.09,0.47-0.09,0.7c-0.03,5.15-0.05,10.3-0.08,15.45
			c-0.02,5.33-0.05,10.67-0.07,16c-0.03,0.23-0.09,0.47-0.09,0.7c-0.03,5.15-0.05,10.3-0.08,15.45c-0.02,5.33-0.05,10.67-0.07,16
			c-0.03,2.31-0.08,4.62-0.09,6.92c0,0.85,0.07,1.7,0.1,2.55c0.69,0.43,1.37,0.87,2.08,1.28c7.99,4.63,15.99,9.25,23.99,13.87
			c7.52,4.34,15.05,8.68,22.58,13.02c6.88,3.97,13.75,7.95,20.62,11.92c6.57,3.79,13.15,7.57,19.72,11.37
			c7.45,4.31,14.89,8.63,22.35,12.93c7.49,4.32,15,8.62,22.48,12.95c7.49,4.33,14.97,8.67,22.45,13.01
			c6.09,3.53,12.17,7.08,18.28,10.57c1.7,0.97,3.38,2.65,5.49,0.6c0.5-0.48,1.24-0.71,1.85-1.08c6.59-3.88,13.16-7.77,19.76-11.65
			c4.83-2.84,9.68-5.63,14.5-8.47c6.04-3.56,12.05-7.17,18.09-10.72c6.77-3.98,13.57-7.9,20.35-11.87
			c6.3-3.7,12.57-7.44,18.87-11.14c4.73-2.78,9.48-5.5,14.21-8.27c6.11-3.59,12.2-7.21,18.3-10.8c5.34-3.14,10.71-6.25,16.06-9.39
			c6.07-3.56,12.14-7.11,18.2-10.69c4.17-2.46,8.33-4.95,12.47-7.46c0.29-0.18,0.57-0.64,0.57-0.97c0.04-3.52,0.03-7.04,0.03-10.56
			c0.04-0.23,0.11-0.46,0.11-0.69c0.03-5.21,0.05-10.43,0.08-15.64c0.02-5.33,0.05-10.67,0.07-16c0.03-0.23,0.09-0.47,0.09-0.7
			c0.03-5.15,0.05-10.3,0.08-15.45c0.02-5.33,0.05-10.67,0.07-16c0.03-0.23,0.09-0.47,0.09-0.7c0.03-5.15,0.05-10.3,0.08-15.45
			c0.02-5.33,0.05-10.67,0.07-16c0.03-0.23,0.09-0.47,0.09-0.7c0.03-5.15,0.05-10.3,0.08-15.45c0.02-5.33,0.05-10.67,0.07-16
			c0.03-0.23,0.09-0.47,0.09-0.7c0.03-5.15,0.05-10.3,0.08-15.45c0.02-5.33,0.05-10.67,0.07-16c0.03-0.23,0.09-0.47,0.09-0.7
			c0.03-5.15,0.05-10.3,0.08-15.45c0.03-3.92-0.08-7.84,0.14-11.75c0.12-2.2-0.49-3.35-2.54-4.45c-6.05-3.23-11.91-6.82-17.85-10.25
			c-5.42-3.13-10.86-6.22-16.27-9.35c-4.53-2.62-9.03-5.3-13.56-7.92c-5.31-3.07-10.66-6.07-15.97-9.14
			c-5.95-3.43-11.87-6.9-17.82-10.34c-7.74-4.48-15.49-8.94-23.23-13.4c-5.98-3.44-11.97-6.87-17.95-10.32
			c-5.68-3.27-11.36-6.56-17.04-9.84c-5.68-3.28-11.35-6.56-17.03-9.84c-5.67-3.28-11.41-6.44-16.97-9.9
			c-1.7-1.06-2.8-0.76-4.27,0.12c-7.56,4.51-15.16,8.96-22.75,13.42c-7.53,4.42-15.07,8.82-22.6,13.24
			c-10.04,5.89-20.07,11.8-30.11,17.7c-11.46,6.73-22.93,13.44-34.38,20.18c-10.31,6.06-20.6,12.14-30.9,18.21
			c-10.47,6.16-20.95,12.33-31.44,18.45c-0.65,0.38-0.82,0.76-0.7,1.41c-0.03,0.23-0.09,0.47-0.09,0.7
			c-0.03,5.15-0.05,10.3-0.08,15.45c-0.02,5.33-0.05,10.67-0.07,16c-0.03,0.23-0.09,0.47-0.09,0.7c-0.03,5.15-0.05,10.3-0.08,15.45
			c-0.02,5.33-0.05,10.67-0.07,16c-0.03,0.23-0.09,0.47-0.09,0.7C21.93,182.89,21.91,188.04,21.89,193.19z"/>
		<path class="st0" d="M15.79,265.2c-0.02,5.18-0.04,10.37-0.07,15.55c0,0.19-0.07,0.38-0.1,0.58c-0.01-5.07-0.01-10.14-0.01-15.22
			C15.61,265.81,15.73,265.51,15.79,265.2z"/>
		<path class="st0" d="M16.51,168.72c-0.02,5.18-0.04,10.37-0.07,15.55c0,0.19-0.07,0.38-0.1,0.58c-0.01-5.07-0.01-10.14-0.01-15.22
			C16.33,169.33,16.45,169.03,16.51,168.72z"/>
		<path class="st0" d="M16.75,136.56c-0.02,5.18-0.04,10.37-0.07,15.55c0,0.19-0.07,0.38-0.1,0.58c-0.01-5.07-0.01-10.14-0.01-15.22
			C16.57,137.17,16.69,136.87,16.75,136.56z"/>
		<path class="st0" d="M16.03,233.04c-0.02,5.18-0.04,10.37-0.07,15.55c0,0.19-0.07,0.38-0.1,0.58c-0.01-5.07-0.01-10.14-0.01-15.22
			C15.85,233.65,15.97,233.35,16.03,233.04z"/>
		<path class="st0" d="M16.27,200.88c-0.02,5.18-0.04,10.37-0.07,15.55c0,0.19-0.07,0.38-0.1,0.58c-0.01-5.07-0.01-10.14-0.01-15.22
			C16.09,201.49,16.21,201.19,16.27,200.88z"/>
		<path class="st0" d="M15.55,297.36c-0.02,5.18-0.04,10.37-0.07,15.55c0,0.19-0.07,0.38-0.1,0.58c-0.01-5.07-0.01-10.14-0.01-15.22
			C15.37,297.97,15.49,297.67,15.55,297.36z"/>
		<path class="st0" d="M17.08,108.49c-0.05,3.58-0.1,7.16-0.16,10.75c-0.01,0.43-0.07,0.86-0.1,1.29
			c-0.01-3.69-0.02-7.38-0.01-11.07C16.81,109.14,16.98,108.82,17.08,108.49z"/>
		<path class="st0" d="M381.41,118.8c0.02-2.93,0.06-5.86,0.06-8.79c0-0.58-0.11-1.17-0.18-1.75c0.1,0.24,0.29,0.47,0.3,0.71
			c0.02,3.09,0.02,6.19,0,9.28C381.59,118.43,381.47,118.61,381.41,118.8z"/>
		<path class="st1" d="M22.06,177.04c0.02-5.33,0.05-10.67,0.07-16c0.07-0.26,0.19-0.52,0.19-0.78c0-5.12-0.01-10.25-0.02-15.37
			c0.02-5.33,0.05-10.67,0.07-16c0.07-0.26,0.19-0.52,0.19-0.78c0-5.12-0.01-10.25-0.02-15.37c-0.11-0.64,0.06-1.03,0.7-1.41
			c10.5-6.12,20.97-12.29,31.44-18.45c10.3-6.06,20.59-12.15,30.9-18.21c11.46-6.74,22.92-13.45,34.38-20.18
			c10.04-5.9,20.07-11.8,30.11-17.7c7.53-4.42,15.07-8.82,22.6-13.24c7.59-4.46,15.19-8.91,22.75-13.42
			c1.47-0.88,2.57-1.18,4.27-0.12c5.56,3.46,11.3,6.63,16.97,9.9c5.68,3.28,11.35,6.56,17.03,9.84c5.68,3.28,11.36,6.57,17.04,9.84
			c5.98,3.44,11.97,6.87,17.95,10.32c7.75,4.46,15.49,8.93,23.23,13.4c5.94,3.44,11.87,6.91,17.82,10.34
			c5.31,3.06,10.66,6.07,15.97,9.14c4.53,2.62,9.03,5.3,13.56,7.92c5.41,3.13,10.86,6.22,16.27,9.35
			c5.94,3.43,11.8,7.03,17.85,10.25c2.05,1.09,2.66,2.25,2.54,4.45c-0.21,3.91-0.11,7.83-0.14,11.75c-0.07,0.26-0.19,0.52-0.19,0.78
			c0,5.12,0.01,10.25,0.02,15.37c-0.02,5.33-0.05,10.67-0.07,16c-0.07,0.26-0.19,0.52-0.19,0.78c0,5.12,0.01,10.25,0.02,15.37
			c-0.02,5.33-0.05,10.67-0.07,16c-0.07,0.26-0.19,0.52-0.19,0.78c0,5.12,0.01,10.25,0.02,15.37c-0.02,5.33-0.05,10.67-0.07,16
			c-0.07,0.26-0.19,0.52-0.19,0.78c0,5.12,0.01,10.25,0.02,15.37c-0.02,5.33-0.05,10.67-0.07,16c-0.07,0.26-0.19,0.52-0.19,0.78
			c0,5.12,0.01,10.25,0.02,15.37c-0.02,5.33-0.05,10.67-0.07,16c-0.07,0.38-0.19,0.76-0.19,1.14c-0.01,5.06,0,10.12,0,15.18
			c0,3.52,0.01,7.04-0.03,10.56c0,0.33-0.28,0.8-0.57,0.97c-4.14,2.51-8.3,5-12.47,7.46c-6.06,3.58-12.13,7.13-18.2,10.69
			c-5.35,3.13-10.71,6.24-16.06,9.39c-6.11,3.59-12.19,7.21-18.3,10.8c-4.73,2.77-9.48,5.5-14.21,8.27
			c-6.3,3.7-12.57,7.45-18.87,11.14c-6.77,3.97-13.58,7.89-20.35,11.87c-6.04,3.55-12.05,7.16-18.09,10.72
			c-4.82,2.84-9.67,5.64-14.5,8.47c-6.59,3.87-13.17,7.77-19.76,11.65c-0.62,0.36-1.36,0.59-1.85,1.08
			c-2.11,2.05-3.79,0.37-5.49-0.6c-6.11-3.49-12.19-7.04-18.28-10.57c-7.48-4.34-14.96-8.68-22.45-13.01
			c-7.49-4.33-14.99-8.62-22.48-12.95c-7.45-4.3-14.9-8.62-22.35-12.93c-6.57-3.8-13.15-7.58-19.72-11.37
			c-6.88-3.97-13.75-7.95-20.62-11.92c-7.52-4.34-15.05-8.68-22.58-13.02c-8-4.62-15.99-9.24-23.99-13.87
			c-0.7-0.41-1.39-0.85-2.08-1.28c0-3.16-0.01-6.32-0.01-9.48c0.02-5.33,0.05-10.67,0.07-16c0.06-0.26,0.19-0.52,0.19-0.78
			c0-5.12-0.01-10.25-0.01-15.37c0.02-5.33,0.05-10.67,0.07-16c0.06-0.26,0.19-0.52,0.19-0.78c0-5.12-0.01-10.25-0.01-15.37
			c0.02-5.33,0.05-10.67,0.07-16c0.07-0.26,0.19-0.52,0.19-0.78c0-5.12-0.01-10.25-0.02-15.37c0.02-5.33,0.05-10.67,0.07-16
			c0.07-0.26,0.19-0.52,0.19-0.78C22.08,187.29,22.07,182.16,22.06,177.04z M329.11,260.2c-1.78,1.75-3.57,3.5-5.35,5.25
			c-2.39,1.94-4.69,4.01-7.2,5.78c-4.44,3.14-9.19,5.77-14.22,7.88c-4.7,1.97-9.44,3.81-14.44,4.85c-4.37,0.91-8.77,1.74-13.19,2.33
			c-3.1,0.41-6.26,0.37-9.39,0.53c-2.48,0-4.96,0-7.44,0c-3.75-0.31-7.51-0.51-11.24-0.95c-5.65-0.66-11.09-2.21-16.42-4.16
			c-0.79-0.29-1.55-0.68-2.4-1.05c1.17-1.88,2.21-3.64,3.35-5.34c2.57-3.83,5.13-7.66,7.8-11.41c2.16-3.04,4.42-6.02,6.76-8.93
			c2.04-2.52,4.26-4.9,6.4-7.34c0.11-0.03,0.26-0.04,0.33-0.11c2.77-2.75,5.53-5.51,8.28-8.28c0.07-0.07,0.08-0.22,0.11-0.33
			c0.77-0.69,1.55-1.39,2.32-2.08c1.56-1.27,3.12-2.55,4.68-3.82c0.36-0.33,0.72-0.65,1.09-0.98c0.31-0.14,0.66-0.24,0.93-0.43
			c2.11-1.5,4.15-3.1,6.31-4.52c5.51-3.62,11.32-6.68,17.42-9.2c0.53-0.22,0.9-0.85,1.34-1.29c0.62-1.88,0.03-3.31-1.62-3.58
			c-0.69-0.12-1.51,0.03-2.18,0.29c-5.32,2.04-10.4,4.57-15.23,7.58c-4.97,3.1-9.66,6.59-14,10.54c-1.92,1.75-3.88,3.47-5.81,5.2
			c-0.27,0.15-0.59,0.25-0.8,0.45c-2.94,2.92-5.87,5.84-8.78,8.79c-0.22,0.23-0.3,0.6-0.44,0.91l0.02-0.02
			c-1.14,1.27-2.29,2.54-3.44,3.81c-0.39,0.47-0.78,0.95-1.18,1.42c-1.19,1.54-2.38,3.09-3.57,4.63c0,0,0.02-0.02,0.02-0.02
			c-0.22,0.15-0.51,0.26-0.66,0.47c-1.38,1.9-2.8,3.77-4.1,5.72c-3.12,4.72-6.17,9.48-9.28,14.2c-0.27,0.41-0.82,0.64-1.23,0.95
			c-3.9-1.78-7.15-4.48-10.28-7.35c-1.31-1.31-2.61-2.62-3.92-3.92c-0.86-1.01-1.71-2.03-2.57-3.04c-2.73-3.24-5.05-6.76-6.89-10.56
			c-1.36-2.81-1.75-5.81,0.15-8.54c1.05-1.51,2.51-2.73,3.78-4.09c1.14-0.7,2.25-1.44,3.42-2.08c5.94-3.27,11.9-6.48,17.82-9.78
			c4.6-2.56,9.15-5.19,13.7-7.83c0.31-0.18,0.45-0.67,0.67-1.02c0.09-0.38,0.13-0.78,0.27-1.14c0.54-1.41-0.59-2.91-2.29-2.53
			c-0.6,0.13-1.23,0.28-1.76,0.57c-3.58,2.01-7.14,4.07-10.71,6.11c-1.4,0.7-2.8,1.4-4.19,2.1c-0.16,0.1-0.32,0.21-0.49,0.3
			c-3.43,1.81-6.97,3.44-10.26,5.46c-4.03,2.47-7.86,5.28-11.78,7.94c-4.03,3.5-5.01,8.07-4.11,13.01c0.41,2.24,1.57,4.41,2.69,6.45
			c3.94,7.15,9.09,13.32,15.44,18.5c5.97,4.87,12.64,8.44,19.88,10.98c4.7,1.65,9.52,2.88,14.48,3.39
			c4.62,0.48,9.24,0.96,13.88,1.15c6.57,0.27,13.12-0.16,19.64-1.13c5.63-0.84,11.19-2,16.61-3.72c8.6-2.73,16.66-6.61,24.02-11.88
			c0.95-0.68,1.8-1.51,2.69-2.27l-0.02,0.02c1.3-1.03,2.6-2.06,3.91-3.09c1.69-1.68,3.36-3.4,5.09-5.04
			c2.78-2.63,5.09-5.65,7.16-8.83c2.17-3.34,4.52-6.65,5.09-10.72c0.51-3.65-0.25-7.08-2.83-9.86c-2.65-2.87-6.13-4.61-9.45-6.54
			c-0.53-0.31-1.4-0.01-2.12,0c-0.42,0.45-1.1,0.85-1.21,1.37c-0.24,1.14-0.19,2.35,1,3.08c0.54,0.33,1.11,0.63,1.65,0.96
			c2.25,1.42,4.68,2.62,6.38,4.75c1.2,1.5,1.8,3.19,1.52,5.2c-0.3,2.17-1.35,3.97-2.42,5.79c-0.8,1.36-1.59,2.72-2.39,4.08
			l0.02-0.02c-0.2,0.12-0.45,0.2-0.58,0.38c-0.98,1.24-1.95,2.5-2.9,3.77c-0.46,0.61-0.89,1.25-1.33,1.88L329.11,260.2z
			 M272.6,243.29l-0.02,0.02c0.28-0.12,0.6-0.19,0.82-0.37c1.27-1.07,2.52-2.17,3.76-3.27c1.05-0.94,2.08-1.9,3.11-2.86l-0.02,0.02
			c0.19-0.04,0.41-0.03,0.56-0.13c4.46-2.91,8.82-6,13.4-8.7c3.66-2.15,7.43-4.23,11.68-5.1c1.3-0.27,2.68-0.63,3.96-0.46
			c1.95,0.26,3.87,0.9,5.77,1.47c1.95,0.58,2.12,1.32,0.83,2.88c-0.57,0.69-1.06,1.46-1.58,2.19c-0.95,1.19-1.9,2.38-2.85,3.57
			c-0.62,0.67-1.34,1.27-1.84,2.01c-3.6,5.35-7.3,10.64-10.69,16.12c-4.06,6.57-7.07,13.66-9.24,21.09
			c-0.47,1.59-0.83,3.24-1.02,4.88c-0.14,1.21,0.85,2.12,2.03,2.22c1.93,0.16,2.61-0.25,2.93-1.79c0.01-0.24-0.02-0.49,0.04-0.71
			c1.33-5.03,3.1-9.89,5.24-14.64c2.17-4.8,4.76-9.35,7.68-13.72c1.93-2.89,3.85-5.78,5.93-8.57c2.1-2.82,4.39-5.49,6.57-8.25
			c1.05-1.34,2.09-2.67,2.5-4.41c0.51-2.22-0.22-5.7-2.84-6.98c-2.7-1.32-5.54-2.11-8.5-2.31c-4.64-0.32-9.04,0.69-13.17,2.83
			c-1.62,0.79-3.23,1.58-4.85,2.36c-1.8,1.07-3.59,2.15-5.4,3.19c-4.76,2.75-9.14,6.02-13.36,9.51c-2.27,1.88-4.45,3.86-6.67,5.79
			c-1.28,1.29-2.56,2.57-3.85,3.86c-0.71,0.79-1.42,1.59-2.13,2.38c-1.1,1.29-2.28,2.51-3.27,3.88c-0.47,0.65-0.73,1.56-0.8,2.38
			c-0.11,1.33,0.68,2.15,2,2.36c1.33,0.22,2.58-0.51,2.97-1.74c1.18-1.42,2.36-2.85,3.54-4.27c0.76-0.68,1.56-1.32,2.27-2.05
			C269.63,246.45,271.1,244.86,272.6,243.29z M311.1,155.57c-1.71,0.54-2.43,2.08-1.69,3.64c0.53,1.11,1.29,2.15,1.6,3.32
			c0.87,3.2-0.37,6.06-1.95,8.72c-0.9,1.52-2.19,2.82-3.3,4.21c-4.98,3.95-9.96,7.91-15.2,12.06c-0.28-2.23-0.53-4.25-3.26-3.9
			c-1.31,0.24-1.94,1.08-1.94,2.67c-0.01,6.94-0.01,13.89,0.01,20.83c0,0.47,0,1.08,0.28,1.37c0.57,0.6,1.25,1.21,2.01,1.46
			c0.69,0.24,1.62,0.22,1.99-0.79c0.22-0.45,0.45-0.9,0.67-1.35c0.11-0.23,0.31-0.46,0.31-0.7c0.02-2.82,0.02-5.64,0-8.47
			c0-0.22-0.14-0.43-0.22-0.65c-0.31-2.09,0.84-3.59,2.03-5.08c1.64-1.52,3.28-3.04,4.92-4.55c0.6-0.48,1.2-0.96,1.8-1.45
			c0.85-0.47,1.76-0.87,2.55-1.44c1.47-1.06,2.87-2.23,4.29-3.35c0.45-0.4,0.89-0.81,1.34-1.21c0.33-0.17,0.75-0.26,0.98-0.52
			c0.93-1.02,1.79-2.09,2.68-3.14c2.26-2.67,3.87-5.69,4.82-9.06c0.59-2.1,0.77-4.25,0.22-6.36c-0.5-1.93-0.95-3.74,1.13-5.05
			c0.15-0.09,0.17-0.35,0.31-0.49c2.28-2.3,3.95-4.98,5.16-7.99c1.21-3.02,1.83-6.15,1.73-9.38c-0.08-2.93-0.74-5.78-1.84-8.52
			c-1.96-4.88-4.61-9.15-9.8-11.21c-1.07-0.42-1.34-1.38-1.47-2.39c-0.17-1.37-0.24-2.76-0.51-4.12c-1.01-5.21-3.48-9.62-7.78-12.79
			c-4.81-3.55-10.42-4.9-16.29-5.26c-0.79-0.05-1.61,0.42-2.42,0.65c-0.27,0.26-0.69,0.48-0.78,0.79c-0.53,1.81,0.37,3.14,2.23,3.5
			c3.11,0.61,6.29,1,9.29,1.96c5.42,1.72,9.07,5.44,10.35,11.05c0.6,2.61,0.66,5.35,0.86,8.03c0.13,1.7,0.56,2.31,2.21,2.77
			c1.18,0.33,2.4,0.63,3.47,1.19c2.6,1.37,4.03,3.77,5.22,6.34c1.92,4.13,2.74,8.39,1.58,12.87c-0.93,3.59-2.79,6.66-5.38,9.3
			c-0.78,0.79-1.5,1.64-2.24,2.46L311.1,155.57z M255.11,144.69c-0.03-2.46-0.25-2.86-2.67-3.39c-2.44-0.53-4.86-1.44-7.44-0.84
			c-1.15,0.27-2.31,0.46-3.47,0.69c-1.54,0.14-2.31,1.05-2.25,2.63c0.07,1.51,0.92,2.39,2.41,2.36c0.75-0.01,1.49-0.23,2.24-0.28
			c1.45-0.1,2.9-0.27,4.34-0.18c1.61,0.1,3.2,0.55,4.81,0.68C254.16,146.45,255.02,145.96,255.11,144.69z M231.93,170.91
			c-0.32,0.19-0.75,0.3-0.94,0.58c-0.84,1.23,0.14,4.2,2.21,4.2c3.65,0.01,7.3,0.16,10.96,0.21c0.81,0.01,1.71-0.03,2.05-1.05
			c1.17-2.15,0.52-3.57-1.85-3.96c-1.44-0.24-2.89-0.63-4.33-0.59C237.33,170.37,234.63,170.7,231.93,170.91z M255.2,319.95
			c-1.21,0.4-1.67,1.18-1.51,2.57c0.14,1.2,1.07,2.11,2.29,2.19c0.6,0.04,1.2,0.01,1.8,0.01c8.79,0,17.57,0,26.36,0
			c0.9,0,1.79-0.01,2.15-1.08c0.95-2.12,0.48-3.11-1.89-3.97c-0.42-0.08-0.83-0.22-1.25-0.22c-8.53-0.01-17.06-0.01-25.58,0
			c-0.42,0-0.83,0.14-1.25,0.22C255.95,319.76,255.57,319.85,255.2,319.95z M231.46,133.23c-0.44,0.55-1.07,1.03-1.3,1.66
			c-1.57,4.35-3.01,8.75-4.58,13.1c-1.41,3.9-2.93,7.75-4.42,11.62c-0.76,1.96-0.4,2.97,1.46,3.9c3.21,1.6,6.67,2.03,10.2,2.08
			c0.94,0.01,1.69-0.43,1.88-1.48c0.34-2.54-0.17-3.18-2.73-3.53c-1.48-0.2-2.96-0.48-4.44-0.69c-0.73-0.11-0.91-0.37-0.62-1.11
			c0.87-2.17,1.68-4.36,2.47-6.56c1.9-5.3,3.79-10.61,5.64-15.93c0.35-1,0.4-2.1-0.54-2.85
			C233.57,132.7,232.52,132.44,231.46,133.23z M285.25,246.28c-0.54,0.29-1.24,0.45-1.6,0.89c-2.69,3.23-5.47,6.4-7.93,9.81
			c-4.7,6.51-8.52,13.53-11.43,21.03c-0.37,0.97-0.47,1.81-0.03,2.72c0.51,1.04,1.38,1.59,2.49,1.48c0.88-0.09,1.85-0.3,2.03-1.47
			c1.2-2.74,2.34-5.52,3.63-8.22c0.92-1.92,1.96-3.79,3.1-5.59c1.97-3.1,3.97-6.2,6.14-9.17c1.76-2.41,3.83-4.58,5.65-6.95
			c0.54-0.71,0.95-1.73,0.95-2.6C288.24,246.68,287.37,246.23,285.25,246.28z M285.4,164.41c-1.16,0.02-1.58,0.8-1.7,1.77
			c-0.19,1.55,0.38,2.63,1.68,3.04c4.1,1.29,7.67,0.17,10.79-2.58c0.74-0.65,1.26-1.55,1.89-2.34c2.1-3.15,3.49-6.57,4.12-10.3
			c0.37-2.17,0.22-4.32-0.54-6.38c-0.39-1.06-0.18-1.8,0.55-2.59c1.91-2.09,3.36-4.47,4.1-7.23c0.19-0.72,0.27-1.5,0.22-2.24
			c-0.07-1.09-0.79-1.68-1.83-1.93c-1.04-0.25-1.82,0.13-2.33,1.01c-0.3,0.51-0.52,1.08-0.67,1.65c-0.54,2.01-1.59,3.72-2.91,5.31
			c-0.59,0.71-1.08,0.81-1.92,0.45c-2.67-1.15-5.35-1.26-7.94,0.25c-1.35,0.78-1.77,2.14-1.11,3.37c0.64,1.2,1.88,1.6,3.29,0.84
			c2.78-1.49,5.86,0.36,6.22,3.42c0.61,5.21-1.03,9.7-5,13.19c-1.19,1.05-2.7,1.7-4.4,1.53
			C287.05,164.57,286.22,164.49,285.4,164.41z M155.52,196.52c-3.41,0-6.81,0-10.3,0c0,1.53,0,2.8,0,4.07
			c0.16,0.1,0.32,0.25,0.49,0.27c0.31,0.05,0.64,0.02,0.96,0.02c7.63,0,15.26,0.01,22.89-0.01c0.43,0,1.22-0.21,1.22-0.33
			c0.01-1.32-0.11-2.64-0.19-3.96c-3.34,0-6.68,0-10.1,0c0-8.7,0-17.28,0-25.88c-5.11,0-10.12,0-15.18,0c0,1.35,0,2.64,0,4.09
			c3.45,0,6.83,0,10.22,0C155.52,182.03,155.52,189.27,155.52,196.52z M76.03,191.52c0.02,0.12,0.05,0.23,0.06,0.35
			c0.41,4.55,3.43,8.4,8.1,9.21c4.14,0.72,8.13,0.33,11.92-1.63c2.88-1.48,2.89-1.47,1.56-4.36c-0.36-0.79-0.63-0.93-1.44-0.38
			c-2.63,1.78-5.37,3.1-8.77,2.64c-3.92-0.53-6.76-3.13-6.6-7.73c0-4.94,0.01-9.88,0.01-14.82c1.31-0.03,2.62-0.08,3.93-0.09
			c3.94-0.01,7.87,0,11.86,0c0-1.39,0-2.69,0-4.08c-2.75,0-5.45,0.01-8.15,0c-2.55-0.01-5.09-0.06-7.64-0.09
			c0-2.13,0.01-4.26-0.01-6.39c0-0.25-0.15-0.5-0.22-0.74c-1.52,0.41-3.04,0.82-4.56,1.22c-0.08,0.37-0.23,0.74-0.23,1.12
			c-0.03,1.6-0.01,3.19-0.01,4.79c-2.37,0-4.74,0-7.11,0c0,1.52,0,2.84,0,4.26c2.43,0,4.77,0,7.11,0c0,5.15,0,10.29,0.01,15.44
			C75.85,190.67,75.97,191.09,76.03,191.52z M205.68,180.95c0-2.84,0-5.67,0-8.52c-4.71-2.16-9.59-2.88-14.69-2.28
			c-6.38,0.75-10.4,4.34-11.89,10.28c-0.78,3.1-0.74,6.24-0.23,9.36c0.48,2.87,1.73,5.44,3.74,7.56c2.25,2.36,5.17,3.66,8.31,3.94
			c3.8,0.34,7.65,0.31,11.29-1.32c1.88-0.84,3.71-1.68,5.23-3.12c-0.75-1.22-1.44-2.35-2.13-3.48c-4.12,3.06-8.52,4.38-13.45,3.19
			c-3.54-0.86-6.25-2.85-7.51-6.39c-1.21-3.4-1-6.82,0.19-10.2c0.81-2.29,2.4-3.9,4.62-4.74c3.99-1.5,8-1.31,11.96,0.23
			c0,1.59-0.02,3.19,0.02,4.78c0.01,0.32,0.28,0.91,0.43,0.91C202.94,181.14,204.31,181.03,205.68,180.95z M248.15,209.28
			c0.08-0.41,0.24-0.82,0.24-1.24c0.02-3.28,0.01-6.55,0.01-9.83c0-0.59,0-1.17,0-1.83c2.39-0.28,4.63-0.51,6.86-0.82
			c3.77-0.52,7.52-1.13,11.29-1.64c3.14-0.43,6.04-1.41,8.37-3.64c0.84-0.8,1.5-1.78,2.25-2.68c0.27-0.28,0.56-0.55,0.8-0.85
			c2.32-3.04,4.18-6.35,5.74-9.83c0.19-0.43,0.31-0.98,0.24-1.44c-0.18-1.24-1.12-1.84-2.82-1.92c-0.59,0.32-1.38,0.49-1.74,0.98
			c-0.84,1.15-1.47,2.45-2.2,3.68c-1.18,1.97-2.39,3.92-3.58,5.88c-1.92,2.5-4.42,4.19-7.51,4.74c-3.19,0.57-6.44,0.88-9.66,1.28
			c-3.7,0.46-7.39,1.05-11.11,1.3c-2.77,0.18-5.59,0.12-8.35-0.22c-2.5-0.31-3.7-2.31-3.72-5.28c-0.01-2.16-0.71-2.98-2.76-3.25
			c-0.98-0.08-1.73,0.4-1.91,1.28c-0.25,1.25-0.42,2.56-0.32,3.82c0.36,4.43,3.22,7.55,7.56,8.31c1.59,0.28,3.23,0.4,4.84,0.46
			c2.45,0.1,2.45,0.06,2.45,2.43c0,3.31-0.02,6.63,0.01,9.94c0.01,1.49,0.99,2.46,2.45,2.52c1.47,0.06,2.42-0.69,2.55-2.02
			l-0.04-0.07C248.09,209.34,248.15,209.28,248.15,209.28z M316.79,339.57c-0.25-1.84-0.35-3.72-0.78-5.51
			c-1.44-6-4.95-10.14-11.08-11.74c-2.47-0.64-4.97-1.21-7.42-1.9c-0.44-0.12-0.75-0.71-1.13-1.08c0.01-8.04,0.02-16.08,0.01-24.12
			c0-0.32-0.2-0.63-0.3-0.95c-0.37-1.22-1.44-1.41-2.46-1.68c-1.68-0.29-2.44,1.08-2.46,3.08c-0.09,8.8-0.05,17.6-0.03,26.4
			c0,1.45,0.67,2.31,1.98,2.63c3.05,0.75,6.1,1.53,9.17,2.15c3.76,0.76,6.46,2.81,8.03,6.29c0.38,0.84,0.55,1.77,0.87,2.87
			c-0.8,0-1.31,0-1.82,0c-27.28,0-54.56,0-81.84,0c-0.6,0-1.2,0.02-1.8,0.03c-0.01-2.82,1.44-4.91,3.35-6.78
			c0.31-0.14,0.63-0.26,0.94-0.42c1.14-0.56,2.21-1.33,3.41-1.65c3.18-0.85,6.42-1.46,9.62-2.27c0.84-0.21,1.98-0.21,2.21-1.46
			c0.06-0.14,0.12-0.29,0.19-0.43c0.11-0.39,0.31-0.79,0.31-1.18c0.02-5.62,0.02-11.25,0-16.87c0-0.37-0.15-0.75-0.23-1.12
			c-0.24-0.36-0.46-0.72-0.71-1.07c-0.71-0.97-2.28-1.13-3.25-0.34c-1.12,0.4-1.07,1.38-1.07,2.28c-0.02,4.59,0.01,9.19-0.03,13.78
			c0,0.56-0.3,1.11-0.46,1.67c-2.02,0.49-4.03,0.99-6.06,1.47c-2.61,0.61-5.21,1.25-7.29,3.11c-0.93,0.82-1.99,1.53-2.76,2.48
			c-2.33,2.88-2.95,6.48-3.84,9.94c-0.73,2.84,0.26,4.1,3.17,4.1c30.17,0,60.34,0,90.51-0.02c0.74,0,1.53-0.14,2.18-0.45
			C316.32,340.63,316.51,340,316.79,339.57z M247.41,92.52c0.01-0.12,0.01-0.24,0.02-0.36c0.32,0.01,0.65-0.04,0.95,0.04
			c5.28,1.41,9.47,5.39,10.54,10.86c0.22,1.13,0.03,2.34,0.03,3.51c-1.54,0.33-3.08,0.67-4.62,1c-1.16,0.25-2.23,0.69-2.52,1.94
			c-0.19,0.79-0.59,0.92-1.26,0.91c-4.5-0.03-8.77-0.79-12.47-3.6c-1.35-1.03-2.55-2.17-3.14-3.82c0.22-0.18,0.41-0.48,0.65-0.52
			c1.09-0.2,2.18-0.34,3.28-0.5c2.78-0.4,5.46,0.02,7.95,1.29c1.15,0.59,2.16,1.46,3.26,2.17c1.28,0.82,2.76,0.51,3.33-0.66
			c1.07-1.88,0.38-3.14-1.72-4.67c-4.15-3.04-8.91-3.75-13.87-3.29c-2.7,0.25-5.39,0.77-7.83,2.08c-0.42,0.4-1.19,0.79-1.2,1.2
			c-0.02,1.06,0.15,2.18,0.5,3.19c0.36,1.05,0.79,1.97-0.33,2.8c-0.08,0.08-0.16,0.15-0.24,0.23c-0.21,0.1-0.46,0.15-0.63,0.29
			c-1.93,1.64-3.27,3.71-4.15,6.06c-1.43,3.82-1.21,7.76-0.57,11.67c0.37,2.23,1.29,4.28,2.99,5.87c0.86,0.81,1.93,0.77,2.92,0.39
			c0.98-0.38,1.48-1.18,1.34-2.29c-0.48-0.97-1-1.93-1.43-2.92c-1.88-4.27-1.72-8.48,0.38-12.63c0.21-0.16,0.43-0.31,0.62-0.49
			c0.76-0.7,1.48-1.44,2.27-2.1c0.59-0.49,1.2-0.45,1.81,0.11c3.36,3.13,7.39,4.52,11.93,4.69c2.22,0.08,4.44,0.25,6.65,0.52
			c0.69,0.08,1.43,0.5,1.95,0.98c1.05,0.97,1.94,2.11,2.95,3.12c3.89,3.88,8.61,5.91,14.09,6.16c3.41,0.15,3.38,0.16,5.05,3.16
			c1.25,2.24,2.87,4.18,4.92,5.75c3.45,2.64,7.51,3.54,11.68,4.01c1.2,0.13,2.5-0.11,3.14-1.47c6.77-8.18,4.12-19.14-1.89-25.16
			c-0.58-0.58-1.61-1.07-2.38-1c-1.98,0.17-2.67,2.25-1.43,3.89c0.79,1.05,1.75,1.99,2.44,3.1c2.84,4.53,3.32,9.24,0.87,14.11
			c-0.36,0.72-0.85,1.31-1.74,1.2c-6.26-0.77-11.58-4.57-13.09-12.07c0.43-0.03,0.85-0.11,1.26-0.07c3.11,0.28,5.51,1.74,7.19,4.38
			c0.36,0.57,0.74,1.15,1.22,1.61c0.67,0.64,1.5,0.7,2.34,0.29c0.89-0.44,1.52-1.1,1.41-2.15c-0.06-0.58-0.25-1.18-0.53-1.69
			c-1.49-2.7-3.61-4.79-6.46-6c-1.15-0.49-1.56-1.14-1.48-2.36c0.07-1.03-0.06-2.08-0.2-3.1c-0.63-4.81-2.92-8.73-6.6-11.8
			c-2.14-1.79-4.71-2.87-7.31-3.83c-1.1-0.58-2.19-0.37-2.8,0.55c-1.14,1.7-0.54,3.69,1.41,4.38c3.3,1.18,6.15,2.91,8.16,5.91
			c1.81,2.69,2.32,5.62,2.13,8.76c-1.1,0.33-2.21,0.65-3.31,0.98c-1.39,0.03-1.51,1.08-1.75,2.1c-0.12,0.52-0.46,0.99-0.7,1.48
			c-3.38,0.32-6.38-0.83-9.16-2.55c-2.35-1.46-4.43-3.28-5.74-5.81c0.3-0.17,0.6-0.48,0.91-0.49c1.42-0.05,2.84-0.07,4.25-0.01
			c2.59,0.1,4.91,0.89,6.83,2.72c0.37,0.35,0.82,0.64,1.27,0.88c0.96,0.51,2.41,0.3,3.12-0.44c0.82-0.87,0.93-1.86,0.35-2.91
			c-0.19-0.24-0.36-0.51-0.57-0.73c-2.27-2.42-5.09-3.79-8.35-4.29c-1.53-0.23-1.79-0.49-1.92-2.01c-0.09-1.1-0.16-2.23-0.42-3.3
			c-1.11-4.52-3.22-8.51-7.08-11.23c-3.92-2.76-8.39-4.11-13.22-4.14c-1.06-0.05-1.66,0.71-1.66,1.52c0.01,1.84,0.15,3.71,0.52,5.51
			c0.28,1.36,1.66,1.89,3.17,1.57C246.74,94.79,247.41,93.84,247.41,92.52z M120.55,201.46c1.3-0.12,2.62-0.11,3.88-0.37
			c4.88-0.99,8.3-3.72,10.01-8.51c1.4-3.93,1.47-7.91,0.59-11.9c-0.79-3.64-2.63-6.69-5.91-8.65c-3.33-1.98-6.93-2.32-10.74-1.91
			c-5.76,0.61-9.56,3.97-11.2,9.16c-1.2,3.79-1.19,7.71-0.33,11.56c0.61,2.72,1.81,5.26,3.95,7.12
			C113.57,200.37,116.83,201.58,120.55,201.46z M48.77,201.54c1.76-0.22,3.54-0.31,5.27-0.69c3.51-0.77,6.34-2.59,7.44-6.19
			c1.31-4.27,0.21-7.22-3.61-9.15c-1.93-0.98-4.1-1.5-6.19-2.14c-2.54-0.77-5.18-1.27-7.65-2.2c-2.47-0.92-2.82-3.35-1-5.24
			c1.39-1.44,3.2-1.76,5.04-1.93c2.99-0.28,5.79,0.49,8.49,1.72c0.86,0.39,2.01,1.26,2.55,0.98c0.75-0.38,1-1.67,1.54-2.52
			c0.53-0.83,0.24-1.22-0.54-1.62c-4.58-2.34-9.42-3.14-14.49-2.36c-2.21,0.34-4.34,1.01-6.04,2.54c-1.44,1.29-2.13,2.95-2.42,4.9
			c-0.33,2.18,0.61,5.01,2.48,6.31c2.37,1.65,5.09,2.35,7.85,2.97c2.74,0.61,5.53,1.1,7.96,2.65c2.38,1.52,2.2,4.38,0.39,5.97
			c-1.88,1.65-4.35,2.04-6.75,1.92c-3.68-0.19-7.12-1.3-10.02-3.7c-0.51-0.42-0.84-0.38-1.15,0.12c-0.55,0.89-1.07,1.8-1.62,2.7
			c-0.3,0.5-0.33,0.75,0.29,1.18C40.25,200.33,44.31,201.43,48.77,201.54z M157.85,165.84c2.29,0.33,4.26-2.03,4.17-3.74
			c-0.1-2.15-1.85-3.91-4.08-3.94c-2.3-0.03-4.02,1.6-4.1,3.9C153.76,164.29,155.4,165.84,157.85,165.84z"/>
		<path class="st2" d="M374.41,303.62c0-5.06-0.01-10.12,0-15.18c0-0.38,0.12-0.76,0.19-1.14c-0.02,5.21-0.05,10.43-0.08,15.64
			C374.52,303.16,374.44,303.39,374.41,303.62z"/>
		<path class="st2" d="M22.3,144.88c0.01,5.12,0.02,10.25,0.02,15.37c0,0.26-0.12,0.52-0.19,0.78c0.02-5.15,0.05-10.3,0.08-15.45
			C22.2,145.34,22.26,145.11,22.3,144.88z"/>
		<path class="st2" d="M375.38,174.8c-0.01-5.12-0.02-10.25-0.02-15.37c0-0.26,0.12-0.52,0.19-0.78c-0.02,5.15-0.05,10.3-0.08,15.45
			C375.48,174.34,375.42,174.57,375.38,174.8z"/>
		<path class="st2" d="M21.82,209.2c0.01,5.12,0.02,10.25,0.02,15.37c0,0.26-0.12,0.52-0.19,0.78c0.02-5.15,0.05-10.3,0.08-15.45
			C21.72,209.66,21.78,209.43,21.82,209.2z"/>
		<path class="st2" d="M375.62,142.64c-0.01-5.12-0.02-10.25-0.02-15.37c0-0.26,0.12-0.52,0.19-0.78
			c-0.02,5.15-0.05,10.3-0.08,15.45C375.72,142.18,375.66,142.41,375.62,142.64z"/>
		<path class="st2" d="M22.06,177.04c0.01,5.12,0.02,10.25,0.02,15.37c0,0.26-0.12,0.52-0.19,0.78c0.02-5.15,0.05-10.3,0.08-15.45
			C21.96,177.5,22.02,177.27,22.06,177.04z"/>
		<path class="st1" d="M21.34,273.52c0.01,5.12,0.02,10.25,0.01,15.37c0,0.26-0.12,0.52-0.19,0.78c0.02-5.15,0.05-10.3,0.08-15.45
			C21.24,273.98,21.3,273.75,21.34,273.52z"/>
		<path class="st1" d="M21.58,241.36c0.01,5.12,0.02,10.25,0.01,15.37c0,0.26-0.12,0.52-0.19,0.78c0.02-5.15,0.05-10.3,0.08-15.45
			C21.48,241.82,21.54,241.59,21.58,241.36z"/>
		<path class="st2" d="M374.9,239.12c-0.01-5.12-0.02-10.25-0.02-15.37c0-0.26,0.12-0.52,0.19-0.78c-0.02,5.15-0.05,10.3-0.08,15.45
			C375,238.66,374.94,238.89,374.9,239.12z"/>
		<path class="st2" d="M375.14,206.96c-0.01-5.12-0.02-10.25-0.02-15.37c0-0.26,0.12-0.52,0.19-0.78
			c-0.02,5.15-0.05,10.3-0.08,15.45C375.24,206.5,375.18,206.73,375.14,206.96z"/>
		<path class="st2" d="M374.66,271.28c-0.01-5.12-0.02-10.25-0.02-15.37c0-0.26,0.12-0.52,0.19-0.78
			c-0.02,5.15-0.05,10.3-0.08,15.45C374.76,270.82,374.7,271.05,374.66,271.28z"/>
		<path class="st2" d="M22.54,112.72c0.01,5.12,0.02,10.25,0.02,15.37c0,0.26-0.12,0.52-0.19,0.78c0.02-5.15,0.05-10.3,0.08-15.45
			C22.44,113.18,22.5,112.95,22.54,112.72z"/>
		<path class="st1" d="M21.1,305.68c0,3.16,0.01,6.32,0.01,9.48c-0.04-0.85-0.11-1.7-0.1-2.55
			C21.02,310.29,21.06,307.98,21.1,305.68z"/>
		<path d="M256.08,236.64c1.94-1.73,3.89-3.45,5.81-5.2c4.34-3.95,9.03-7.44,14-10.54c4.83-3.02,9.91-5.54,15.23-7.58
			c0.67-0.26,1.48-0.41,2.18-0.29c1.65,0.28,2.24,1.7,1.62,3.58c-1.48,0.76-2.92,1.59-4.43,2.27c-7.76,3.46-14.97,7.81-21.56,13.17
			c-0.36,0.33-0.72,0.65-1.09,0.98c-1.56,1.27-3.12,2.55-4.68,3.82c-0.77,0.69-1.55,1.39-2.32,2.08c-2.91,2.91-5.82,5.81-8.72,8.72
			c-2.14,2.44-4.36,4.81-6.4,7.34c-2.34,2.9-4.6,5.89-6.76,8.93c-2.67,3.75-5.23,7.58-7.8,11.41c-1.14,1.7-2.18,3.46-3.35,5.34
			c0.85,0.37,1.61,0.76,2.4,1.05c5.33,1.96,10.77,3.5,16.42,4.16c3.73,0.44,7.49,0.64,11.24,0.95c2.48,0,4.96,0,7.44,0
			c3.13-0.16,6.29-0.12,9.39-0.53c4.42-0.59,8.82-1.42,13.19-2.33c4.99-1.04,9.74-2.88,14.44-4.85c5.04-2.11,9.78-4.74,14.22-7.88
			c2.51-1.77,4.8-3.84,7.2-5.78c1.78-1.75,3.57-3.5,5.35-5.25c0,0-0.02,0.02-0.02,0.02c1.61-2.01,3.21-4.01,4.82-6.02
			c0,0-0.02,0.02-0.02,0.02c1.4-2.22,2.98-4.34,4.15-6.67c2.12-4.22,1.11-7.95-2.74-10.69c-1.69-1.2-3.49-2.23-5.26-3.32
			c-2.1-1.29-2.34-2.77-0.7-4.56c0.71-0.02,1.59-0.31,2.12,0c3.32,1.93,6.79,3.67,9.45,6.54c2.58,2.78,3.34,6.21,2.83,9.86
			c-0.57,4.07-2.92,7.38-5.09,10.72c-2.07,3.19-4.38,6.2-7.16,8.83c-1.73,1.64-3.4,3.36-5.09,5.04c-1.3,1.03-2.6,2.06-3.91,3.09
			c0,0,0.02-0.02,0.02-0.02c-0.27,0.17-0.54,0.33-0.79,0.52c-6.15,4.59-12.79,8.3-19.93,11.13c-9.82,3.88-20.03,5.99-30.54,6.77
			c-11.76,0.88-23.43,0.32-34.86-2.76c-18.64-5.02-32.53-16.06-41.52-33.19c-2.88-5.5-2.15-11.46,1.92-16.19
			c0.2-0.23,0.34-0.51,0.51-0.76c3.92-2.66,7.75-5.46,11.78-7.94c3.3-2.02,6.83-3.65,10.26-5.46c0.17-0.09,0.33-0.2,0.49-0.3
			c1.4-0.7,2.8-1.4,4.19-2.1c3.57-2.04,7.13-4.1,10.71-6.11c0.53-0.3,1.16-0.44,1.76-0.57c1.7-0.38,2.83,1.12,2.29,2.53
			c-0.14,0.36-0.18,0.76-0.27,1.14c-0.47,0.36-0.9,0.79-1.42,1.07c-7.57,4.17-15.2,8.26-22.73,12.52
			c-3.91,2.21-7.65,4.73-11.46,7.12c-1.28,1.35-2.74,2.58-3.78,4.09c-1.9,2.73-1.51,5.73-0.15,8.54c1.84,3.8,4.16,7.32,6.89,10.56
			c0.86,1.01,1.71,2.03,2.57,3.04c1.31,1.31,2.61,2.62,3.92,3.92c3.13,2.87,6.37,5.57,10.28,7.35c0.72,0.73,0.98,0.09,1.31-0.42
			c3.18-4.89,6.33-9.8,9.55-14.66c1.41-2.13,2.94-4.18,4.41-6.26c0,0-0.02,0.02-0.02,0.02c1.19-1.54,2.38-3.09,3.57-4.63
			c0.39-0.47,0.78-0.95,1.18-1.42c1.15-1.27,2.29-2.54,3.44-3.81c0,0-0.02,0.02-0.02,0.02c3.13-3.11,6.26-6.22,9.38-9.34
			C255.68,237.2,255.87,236.91,256.08,236.64z"/>
		<path d="M270.21,96.56c2.6,0.96,5.17,2.05,7.31,3.83c3.69,3.07,5.97,7,6.6,11.8c0.13,1.03,0.26,2.08,0.2,3.1
			c-0.08,1.22,0.34,1.87,1.48,2.36c2.85,1.21,4.97,3.3,6.46,6c0.28,0.51,0.47,1.11,0.53,1.69c0.11,1.05-0.52,1.71-1.41,2.15
			c-0.84,0.41-1.67,0.34-2.34-0.29c-0.48-0.46-0.86-1.04-1.22-1.61c-1.68-2.65-4.07-4.1-7.19-4.38c-0.41-0.04-0.83,0.05-1.26,0.07
			c1.51,7.5,6.83,11.3,13.09,12.07c0.89,0.11,1.38-0.48,1.74-1.2c2.45-4.87,1.97-9.58-0.87-14.11c-0.7-1.11-1.65-2.05-2.44-3.1
			c-1.24-1.65-0.55-3.72,1.43-3.89c0.77-0.07,1.81,0.42,2.38,1c6.01,6.02,8.66,16.98,1.89,25.16c-1.61,1.38-3.45,1.17-5.34,0.84
			c-4.92-0.84-9.28-2.71-12.38-6.8c-1.03-1.36-1.84-2.89-2.66-4.4c-0.5-0.92-1.15-1.31-2.2-1.29c-7.77,0.1-13.99-3.06-18.75-9.14
			c-0.62-0.8-1.35-1.17-2.33-1.23c-2.11-0.13-4.22-0.35-6.33-0.46c-4.13-0.22-7.94-1.29-11.21-3.94c-2.15-1.74-2.72-1.69-4.65,0.34
			c-0.46,0.48-0.8,1.08-1.2,1.63c-2.1,4.15-2.25,8.37-0.38,12.63c0.44,0.99,0.95,1.95,1.43,2.92c-0.35,1.14-0.95,2.05-2.24,2.19
			c-1.24,0.14-1.98-0.66-2.65-1.55c-1.62-2.16-2.2-4.67-2.43-7.29c-0.51-5.77,0.58-10.99,5.21-14.98c0.11-0.09,0.15-0.25,0.23-0.38
			c0.08-0.08,0.16-0.15,0.24-0.23c1.09-0.44,1.51-1.11,0.88-2.26c-0.28-0.51-0.43-1.11-0.65-1.66c-0.51-1.28-0.38-2.4,0.79-3.27
			c2.45-1.31,5.14-1.83,7.83-2.08c4.96-0.47,9.72,0.25,13.87,3.29c2.1,1.54,2.79,2.79,1.72,4.67c-1.5,1.07-2.36,1.04-3.73-0.1
			c-4.34-3.62-9.3-3.63-14.46-2.49c-0.56,0.12-0.66,0.37-0.27,0.8c0.59,1.65,1.79,2.79,3.14,3.82c3.7,2.81,7.97,3.57,12.47,3.6
			c0.66,0,1.07-0.12,1.26-0.91c0.29-1.25,1.37-1.7,2.52-1.94c1.54-0.33,3.08-0.66,4.62-1c0.19-0.23,0.53-0.45,0.54-0.68
			c0.17-6.76-4.52-12.65-11.58-14.1c-0.13-0.03-0.32,0.24-0.48,0.37c-0.01,0.12-0.01,0.24-0.02,0.36c-0.05,0.11-0.12,0.21-0.16,0.32
			c-0.46,1.35-1.34,2.02-2.51,1.9c-1.19-0.11-1.96-0.9-2.18-2.29c-0.16-0.98-0.26-1.97-0.4-2.95c-0.2-1.36,0.23-2.42,1.48-3.09
			c4.83,0.03,9.3,1.38,13.22,4.14c3.86,2.72,5.97,6.71,7.08,11.23c0.26,1.07,0.34,2.19,0.42,3.3c0.12,1.52,0.38,1.78,1.92,2.01
			c3.25,0.5,6.08,1.87,8.35,4.29c0.21,0.22,0.38,0.49,0.57,0.73c0.3,1.54,0.01,2.39-1.05,3.02c-1.04,0.62-2.01,0.42-2.85-0.38
			c-3.6-3.43-7.97-3.68-12.56-3.13c-0.65,0.08-0.65,0.31-0.28,0.74c1.31,2.53,3.39,4.35,5.74,5.81c2.77,1.72,5.78,2.87,9.16,2.55
			c0.77,0.21,0.94-0.19,0.95-0.87c0.01-1.16,0.38-2.14,1.5-2.71c1.1-0.33,2.21-0.65,3.31-0.98c0.12-0.94,0.42-1.91,0.32-2.83
			c-0.55-5.15-3.32-8.77-7.88-11.08c-0.89-0.45-1.84-0.77-2.74-1.19c-1.41-0.66-1.92-1.69-1.52-2.97
			C267.72,96.75,268.56,96.31,270.21,96.56z"/>
		<path d="M293.62,292.59c1.02,0.27,2.09,0.46,2.46,1.68c0.05,0.71,0.14,1.43,0.14,2.14c0,7.14-0.01,14.27-0.01,21.41
			c0,0.51,0.11,1.01,0.16,1.52c0.37,0.37,0.68,0.96,1.13,1.08c2.46,0.69,4.95,1.26,7.42,1.9c6.14,1.6,9.64,5.74,11.08,11.74
			c0.43,1.8,0.53,3.67,0.78,5.51c-0.82,1.42-2.22,1.4-3.58,1.4c-29.74,0.01-59.49,0.01-89.23,0c-0.6,0-1.2-0.02-1.79-0.12
			c-1.56-0.24-2.25-1.13-1.97-2.7c0.25-1.37,0.68-2.71,0.98-4.07c0.83-3.69,2.49-6.89,5.46-9.33c2.08-1.86,4.68-2.5,7.29-3.11
			c2.02-0.48,4.04-0.98,6.06-1.47c1.05-0.19,0.82-1.05,0.82-1.7c0.02-4.4-0.04-8.8,0.03-13.2c0.02-0.95,0.47-1.89,0.72-2.84
			c0.97-0.79,2.54-0.63,3.25,0.34c0.25,0.35,0.48,0.71,0.71,1.07c0.02,5.23,0.04,10.47,0.04,15.7c0,1.16-0.08,2.31-0.13,3.47
			c-0.06,0.14-0.12,0.29-0.19,0.43c-0.73,0.37-1.43,0.88-2.21,1.08c-3.01,0.77-6.04,1.44-9.07,2.16c-1.85,0.44-3.55,1.16-4.9,2.57
			c-1.9,1.87-3.36,3.97-3.35,6.78c0.39,0.05,0.78,0.13,1.17,0.13c27.72,0.01,55.43,0.01,83.15,0c0.42,0,0.84-0.04,1.25-0.06
			c-0.13-4.35-3.59-8.34-8.07-9.4c-3.19-0.76-6.38-1.47-9.57-2.23c-1.69-0.41-2.14-0.95-2.14-2.67c-0.01-8.76,0-17.52,0.02-26.28
			C291.55,293.76,292,293.18,293.62,292.59z"/>
		<path d="M292.44,192.92c-1.19,1.49-2.34,2.99-2.03,5.08c-0.03,3.27-0.06,6.54-0.1,9.81c-0.22,0.45-0.45,0.9-0.67,1.35
			c-2.17,1.14-3.94,0.24-3.97-2.19c-0.07-6.84-0.04-13.68-0.02-20.52c0-1.23,0.45-2.27,1.65-2.84c2.73-0.35,2.98,1.67,3.26,3.9
			c5.23-4.15,10.21-8.11,15.2-12.06c1.17-1.27,2.59-2.38,3.45-3.83c2.35-3.98,3.73-8.11,0.6-12.42c-0.68-0.93-0.45-1.9,0.37-2.7
			c0.31-0.31,0.61-0.62,0.92-0.93c0,0-0.02,0.02-0.02,0.02c10.16-8,10.87-19.71,3.72-29.08c-1.34-1.76-3.21-2.83-5.43-3.26
			c-2.49-0.47-2.8-0.86-2.89-3.4c-0.02-0.52,0.01-1.04-0.06-1.56c-0.32-2.33-0.39-4.73-1.06-6.96c-1.93-6.36-6.77-9.52-12.94-10.96
			c-2.05-0.48-4.18-0.64-6.26-1.02c-2.42-0.44-3.14-2.01-1.9-4.05c0.81-0.23,1.63-0.7,2.42-0.65c5.87,0.36,11.48,1.71,16.29,5.26
			c4.3,3.17,6.77,7.57,7.78,12.79c0.26,1.35,0.34,2.74,0.51,4.12c0.13,1.02,0.4,1.97,1.47,2.39c5.19,2.06,7.84,6.33,9.8,11.21
			c1.1,2.74,1.76,5.59,1.84,8.52c0.09,3.23-0.52,6.36-1.73,9.38c-1.21,3.01-2.88,5.68-5.16,7.99c-0.13,0.13-0.16,0.39-0.31,0.49
			c-2.07,1.32-1.63,3.12-1.13,5.05c0.54,2.11,0.37,4.25-0.22,6.36c-0.94,3.37-2.56,6.39-4.82,9.06c-1.22,1.22-2.44,2.44-3.67,3.66
			c-0.45,0.4-0.89,0.81-1.34,1.21c-2.28,1.6-4.56,3.19-6.84,4.79c-0.6,0.48-1.2,0.96-1.8,1.45
			C295.72,189.89,294.08,191.41,292.44,192.92z"/>
		<path d="M312.03,232.56c0.95-1.19,1.9-2.38,2.85-3.57c0.83-1,1.75-1.93,2.47-3c0.6-0.89,0.28-1.75-0.76-2.11
			c-3.96-1.39-7.99-2.67-12.14-0.93c-3.75,1.57-7.55,3.12-11.04,5.17c-4.53,2.66-8.78,5.79-13.15,8.72c0,0,0.02-0.02,0.02-0.02
			c-2.57,2.17-5.13,4.34-7.7,6.5c0,0,0.02-0.02,0.02-0.02c-2.26,2.25-4.52,4.5-6.77,6.76c-1.18,1.42-2.36,2.85-3.54,4.27
			c-0.23,0.22-0.45,0.45-0.69,0.66c-1.09,0.97-2.29,1.06-3.25,0.26c-0.96-0.79-1.11-2.01-0.39-3.25c0.24-0.41,0.54-0.79,0.83-1.17
			c0.86-1.13,1.72-2.26,2.58-3.39c0.71-0.79,1.42-1.59,2.13-2.38c1.28-1.29,2.56-2.57,3.85-3.86c2.22-1.94,4.4-3.92,6.67-5.79
			c4.22-3.49,8.61-6.76,13.36-9.51c1.81-1.04,3.6-2.13,5.4-3.19c1.62-0.79,3.23-1.58,4.85-2.36c4.13-2.14,8.53-3.16,13.17-2.83
			c2.96,0.21,5.8,0.99,8.5,2.31c2.62,1.28,3.35,4.76,2.84,6.98c-0.4,1.73-1.44,3.07-2.5,4.41c-2.18,2.76-4.47,5.43-6.57,8.25
			c-2.07,2.78-4,5.68-5.93,8.57c-2.92,4.37-5.51,8.92-7.68,13.72c-2.14,4.74-3.92,9.61-5.24,14.64c-0.06,0.23-0.03,0.48-0.04,0.71
			c-1.1,1.54-2.12,1.94-3.39,1.34c-1.21-0.57-1.59-1.66-1.09-3.39c0.73-2.53,1.39-5.09,2.28-7.56c4.47-12.45,11.3-23.57,19.43-33.94
			C311.66,233.24,311.83,232.89,312.03,232.56z"/>
		<path d="M230.49,182.67c2.05,0.27,2.75,1.09,2.76,3.25c0.02,2.97,1.22,4.97,3.72,5.28c2.75,0.34,5.58,0.4,8.35,0.22
			c3.72-0.25,7.41-0.84,11.11-1.3c3.22-0.4,6.47-0.71,9.66-1.28c3.09-0.55,5.59-2.24,7.51-4.74c0.36-0.4,0.8-0.75,1.08-1.21
			c1.48-2.42,2.88-4.89,4.41-7.28c0.51-0.8,1.35-1.38,2.04-2.07c1.7,0.08,2.64,0.68,2.82,1.92c0.07,0.46-0.05,1.01-0.24,1.44
			c-1.56,3.48-3.41,6.79-5.74,9.83c-0.24,0.31-0.53,0.57-0.8,0.85c-0.48,0.48-0.97,0.95-1.44,1.44c-2.22,2.33-4.84,3.9-8.07,4.35
			c-2.85,0.4-5.69,0.87-8.54,1.27c-3.63,0.51-7.27,0.98-10.85,1.46c-0.07,0.18-0.12,0.25-0.12,0.33c-0.01,4.28-0.01,8.56-0.01,12.83
			l-0.06,0.06c0,0,0.04,0.07,0.04,0.08c-0.8,1.44-1.76,1.98-2.94,1.66c-1.17-0.31-1.78-1.28-1.81-2.9
			c-0.01-0.76-0.01-1.52-0.01-2.28c0-3.11,0-6.21,0-9.42c-1.96-0.14-3.82-0.26-5.68-0.4c-5.75-0.42-9.48-4.58-9.25-10.25
			C228.49,184.33,229.03,183.22,230.49,182.67z"/>
		<path d="M120.55,201.46c-3.72,0.12-6.98-1.1-9.74-3.5c-2.14-1.86-3.35-4.4-3.95-7.12c-0.86-3.85-0.87-7.77,0.33-11.56
			c1.64-5.19,5.44-8.55,11.2-9.16c3.81-0.41,7.42-0.07,10.74,1.91c3.29,1.96,5.12,5.01,5.91,8.65c0.87,4,0.81,7.98-0.59,11.9
			c-1.71,4.79-5.13,7.52-10.01,8.51C123.17,201.35,121.85,201.35,120.55,201.46z M130.87,186.03c-0.1-0.03-0.2-0.05-0.3-0.08
			c-0.01-2.54-0.37-5-1.61-7.27c-1.86-3.42-5.25-5.1-9.35-4.62c-4,0.47-6.47,2.56-7.55,6.44c-0.71,2.57-0.82,5.18-0.45,7.82
			c0.96,6.76,5.78,10.21,12.19,8.71c2.62-0.61,4.6-2.15,5.5-4.67C130.05,190.32,130.37,188.14,130.87,186.03z"/>
		<path d="M48.77,201.54c-4.45-0.1-8.52-1.21-12.2-3.75c-0.63-0.43-0.59-0.68-0.29-1.18c0.54-0.9,1.06-1.81,1.62-2.7
			c0.32-0.51,0.64-0.55,1.15-0.12c2.9,2.39,6.34,3.51,10.02,3.7c2.4,0.12,4.87-0.27,6.75-1.92c1.8-1.59,1.99-4.45-0.39-5.97
			c-2.43-1.55-5.22-2.04-7.96-2.65c-2.76-0.62-5.48-1.32-7.85-2.97c-1.87-1.3-2.8-4.14-2.48-6.31c0.29-1.95,0.98-3.61,2.42-4.9
			c1.7-1.53,3.83-2.2,6.04-2.54c5.08-0.78,9.91,0.02,14.49,2.36c0.78,0.4,1.07,0.79,0.54,1.62c-0.54,0.85-0.8,2.14-1.54,2.52
			c-0.54,0.28-1.69-0.59-2.55-0.98c-2.7-1.23-5.5-1.99-8.49-1.72c-1.84,0.17-3.66,0.49-5.04,1.93c-1.82,1.88-1.47,4.31,1,5.24
			c2.48,0.93,5.11,1.43,7.65,2.2c2.09,0.63,4.26,1.16,6.19,2.14c3.82,1.93,4.92,4.88,3.61,9.15c-1.1,3.6-3.93,5.42-7.44,6.19
			C52.31,201.23,50.53,201.32,48.77,201.54z"/>
		<path d="M201.12,175.45c-3.96-1.54-7.97-1.73-11.96-0.23c-2.23,0.84-3.81,2.45-4.62,4.74c-1.19,3.38-1.41,6.8-0.19,10.2
			c1.26,3.54,3.97,5.53,7.51,6.39c4.93,1.2,9.33-0.12,13.45-3.19c0.69,1.13,1.38,2.25,2.13,3.48c-1.52,1.45-3.35,2.29-5.23,3.12
			c-3.64,1.63-7.5,1.66-11.29,1.32c-3.13-0.28-6.06-1.58-8.31-3.94c-2.02-2.12-3.27-4.68-3.74-7.56c-0.52-3.12-0.55-6.26,0.23-9.36
			c1.49-5.94,5.51-9.53,11.89-10.28c5.11-0.6,9.98,0.12,14.69,2.28c0,2.85,0,5.69,0,8.52c-1.45,0-2.89,0-4.36,0
			c0-0.65,0.02-1.16,0-1.68C201.26,178,201.19,176.72,201.12,175.45z"/>
		<path d="M80.88,170.55c2.55,0.03,5.09,0.07,7.64,0.09c2.7,0.02,5.4,0,8.15,0c0,1.39,0,2.69,0,4.08c-3.98,0-7.92-0.01-11.86,0
			c-1.31,0-2.62,0.06-3.93,0.09c-0.04,2.47-0.11,4.94-0.12,7.4c0,2.47,0.07,4.94,0.1,7.41c-0.16,4.6,2.68,7.21,6.6,7.73
			c3.4,0.46,6.14-0.86,8.77-2.64c0.81-0.55,1.07-0.4,1.44,0.38c1.33,2.89,1.33,2.88-1.56,4.36c-3.79,1.95-7.78,2.35-11.92,1.63
			c-4.68-0.82-7.69-4.66-8.1-9.21c-0.01-0.12-0.04-0.24-0.06-0.35c-0.02-5.22-0.05-10.44-0.08-15.66c0-0.35-0.08-0.69-0.12-1.04
			c-2.34,0-4.68,0-7.11,0c0-1.43,0-2.75,0-4.26c2.37,0,4.74,0,7.11,0c0.04-0.42,0.11-0.85,0.12-1.27c0.05-1.54,0.09-3.09,0.13-4.63
			c1.52-0.41,3.04-0.82,4.56-1.22c0.04,0.51,0.09,1.02,0.11,1.54C80.8,166.82,80.84,168.68,80.88,170.55z"/>
		<path d="M155.52,174.78c-3.39,0-6.77,0-10.22,0c0-1.45,0-2.74,0-4.09c5.06,0,10.08,0,15.18,0c0,8.61,0,17.18,0,25.88
			c3.43,0,6.77,0,10.1,0c0,1.34,0,2.68,0,4.1c-0.26,0-0.49,0-0.72,0c-7.9,0-15.8,0-23.7,0c-0.32,0-0.63-0.06-0.95-0.09
			c0-1.27,0-2.54,0-4.07c3.49,0,6.9,0,10.3,0c0.07-0.24,0.19-0.48,0.19-0.72c0.01-6.76,0.01-13.53,0-20.29
			C155.71,175.26,155.59,175.02,155.52,174.78z"/>
		<path d="M285.4,164.41c0.83,0.08,1.65,0.16,2.48,0.24c1.7,0.17,3.21-0.48,4.4-1.53c3.96-3.49,5.61-7.97,5-13.19
			c-0.36-3.06-3.45-4.91-6.22-3.42c-1.41,0.75-2.64,0.36-3.29-0.84c-0.66-1.23-0.24-2.58,1.11-3.37c2.59-1.51,5.28-1.4,7.94-0.25
			c0.84,0.36,1.33,0.26,1.92-0.45c1.32-1.59,2.37-3.3,2.91-5.31c0.15-0.57,0.38-1.14,0.67-1.65c0.51-0.89,1.29-1.26,2.33-1.01
			c1.04,0.25,1.77,0.84,1.83,1.93c0.04,0.74-0.03,1.52-0.22,2.24c-0.75,2.75-2.2,5.13-4.1,7.23c-0.72,0.79-0.94,1.53-0.55,2.59
			c0.76,2.06,0.91,4.2,0.54,6.38c-0.63,3.73-2.02,7.16-4.12,10.3c-0.66,0.68-1.29,1.42-2,2.04c-2.82,2.46-6,3.76-9.8,2.83
			c-1.14-0.28-2.11-0.86-2.31-2.14C283.74,165.82,284.36,164.98,285.4,164.41z"/>
		<path d="M285.25,246.28c2.13-0.05,3,0.4,3,1.93c0,0.87-0.4,1.89-0.95,2.6c-1.82,2.37-3.89,4.54-5.65,6.95
			c-2.17,2.97-4.17,6.06-6.14,9.17c-1.14,1.8-2.19,3.67-3.1,5.59c-1.29,2.7-2.43,5.48-3.63,8.22c-1.23,1.18-2.36,1.44-3.39,0.78
			c-1.03-0.66-1.3-1.98-0.71-3.49c4.27-10.93,10.38-20.72,18.13-29.5C283.53,247.7,284.43,247.02,285.25,246.28z"/>
		<path d="M231.46,133.23c1.06-0.8,2.11-0.53,3.03,0.19c0.94,0.75,0.89,1.85,0.54,2.85c-1.85,5.32-3.74,10.63-5.64,15.93
			c-0.79,2.2-1.6,4.39-2.47,6.56c-0.29,0.74-0.11,1,0.62,1.11c1.48,0.22,2.96,0.49,4.44,0.69c2.56,0.35,3.07,1,2.73,3.53
			c-0.61,0.84-1.45,1.26-2.47,1.19c-3.04-0.19-6.04-0.58-8.87-1.82c-2.32-1.02-2.6-1.73-1.75-4.08c2.92-8.02,5.81-16.05,8.74-24.07
			C230.62,134.6,231.08,133.93,231.46,133.23z"/>
		<path d="M284.4,319.67c2.37,0.86,2.84,1.85,1.89,3.97c-0.77,0.27-1.55,0.77-2.32,0.78c-9.06,0.06-18.12,0.05-27.18,0.03
			c-1.16,0-2.25-0.31-2.67-1.6c-0.4-1.23,0.07-2.17,1.07-2.9c0.37-0.09,0.75-0.19,1.12-0.28
			C265.68,319.67,275.04,319.67,284.4,319.67z"/>
		<path d="M231.93,170.91c2.7-0.21,5.4-0.54,8.11-0.6c1.44-0.03,2.89,0.36,4.33,0.59c2.36,0.39,3.02,1.8,1.85,3.96
			c-0.91,0.23-1.81,0.64-2.72,0.64c-3.22,0.01-6.45-0.16-9.68-0.16c-1.24,0-2.05-0.41-2.54-1.54
			C230.79,172.67,230.99,171.71,231.93,170.91z"/>
		<path d="M241.53,141.15c1.16-0.23,2.32-0.42,3.47-0.69c2.58-0.6,5,0.31,7.44,0.84c2.43,0.53,2.65,0.92,2.67,3.39
			c-0.91,1.37-1.61,1.59-3.23,1.32c-1.92-0.32-3.84-0.65-5.78-0.73c-1.17-0.05-2.35,0.35-3.53,0.56c-1.41,0.24-2.44-0.27-2.81-1.4
			c-0.42-1.26,0.03-2.35,1.25-3C241.18,141.33,241.35,141.24,241.53,141.15z"/>
		<path class="st2" d="M197.3,238.56c-0.17,0.26-0.31,0.53-0.51,0.76c-4.06,4.73-4.8,10.69-1.92,16.19
			c8.99,17.13,22.88,28.17,41.52,33.19c11.43,3.08,23.1,3.64,34.86,2.76c10.5-0.79,20.72-2.89,30.54-6.77
			c7.14-2.82,13.78-6.54,19.93-11.13c0.25-0.19,0.53-0.35,0.79-0.52c-0.89,0.76-1.74,1.59-2.69,2.27
			c-7.36,5.26-15.42,9.14-24.02,11.88c-5.42,1.72-10.97,2.88-16.61,3.72c-6.52,0.97-13.07,1.4-19.64,1.13
			c-4.63-0.19-9.26-0.67-13.88-1.15c-4.96-0.51-9.78-1.75-14.48-3.39c-7.24-2.53-13.9-6.11-19.88-10.98
			c-6.35-5.18-11.5-11.35-15.44-18.5c-1.12-2.04-2.28-4.21-2.69-6.45C192.29,246.63,193.28,242.05,197.3,238.56z"/>
		<path d="M157.85,165.84c-2.45,0-4.09-1.55-4.01-3.78c0.08-2.3,1.79-3.93,4.1-3.9c2.24,0.03,3.98,1.79,4.08,3.94
			C162.1,163.81,160.14,166.17,157.85,165.84z"/>
		<path class="st2" d="M293.62,292.59c-1.62,0.6-2.08,1.17-2.08,2.93c-0.02,8.76-0.03,17.52-0.02,26.28c0,1.73,0.45,2.26,2.14,2.67
			c3.18,0.77,6.38,1.48,9.57,2.23c4.49,1.06,7.94,5.05,8.07,9.4c-0.41,0.02-0.83,0.06-1.25,0.06c-27.72,0-55.43,0-83.15,0
			c-0.39,0-0.78-0.09-1.17-0.13c0.6-0.01,1.2-0.03,1.8-0.03c27.28,0,54.56,0,81.84,0c0.51,0,1.02,0,1.82,0
			c-0.33-1.1-0.5-2.03-0.87-2.87c-1.57-3.48-4.26-5.53-8.03-6.29c-3.08-0.62-6.12-1.41-9.17-2.15c-1.3-0.32-1.97-1.18-1.98-2.63
			c-0.02-8.8-0.06-17.6,0.03-26.4C291.18,293.67,291.94,292.3,293.62,292.59z"/>
		<path class="st2" d="M226.65,324.75c-2.96,2.44-4.63,5.64-5.46,9.33c-0.31,1.36-0.73,2.7-0.98,4.07c-0.28,1.56,0.41,2.46,1.97,2.7
			c0.59,0.09,1.19,0.12,1.79,0.12c29.74,0,59.49,0,89.23,0c1.37,0,2.76,0.02,3.58-1.4c-0.28,0.43-0.47,1.06-0.86,1.25
			c-0.66,0.31-1.45,0.45-2.18,0.45c-30.17,0.02-60.34,0.02-90.51,0.02c-2.91,0-3.91-1.26-3.17-4.1c0.89-3.46,1.51-7.06,3.84-9.94
			C224.66,326.29,225.73,325.57,226.65,324.75z"/>
		<path class="st2" d="M284.27,95.31c-1.24,2.04-0.53,3.61,1.9,4.05c2.08,0.37,4.21,0.54,6.26,1.02
			c6.16,1.44,11.01,4.59,12.94,10.96c0.67,2.22,0.74,4.63,1.06,6.96c0.07,0.51,0.04,1.04,0.06,1.56c0.1,2.54,0.41,2.93,2.89,3.4
			c2.22,0.42,4.09,1.5,5.43,3.26c7.15,9.37,6.44,21.08-3.72,29.08c0.75-0.82,1.47-1.67,2.24-2.46c2.6-2.64,4.46-5.71,5.38-9.3
			c1.16-4.49,0.33-8.75-1.58-12.87c-1.2-2.57-2.62-4.97-5.22-6.34c-1.07-0.56-2.29-0.86-3.47-1.19c-1.65-0.46-2.08-1.07-2.21-2.77
			c-0.2-2.69-0.26-5.43-0.86-8.03c-1.28-5.61-4.93-9.33-10.35-11.05c-3-0.95-6.19-1.34-9.29-1.96c-1.86-0.37-2.76-1.69-2.23-3.5
			C283.58,95.79,284,95.57,284.27,95.31z"/>
		<path class="st2" d="M229.56,112.76c0.4-0.55,0.73-1.15,1.2-1.63c1.94-2.03,2.5-2.08,4.65-0.34c3.28,2.65,7.09,3.71,11.21,3.94
			c2.11,0.11,4.22,0.33,6.33,0.46c0.98,0.06,1.71,0.44,2.33,1.23c4.76,6.08,10.97,9.24,18.75,9.14c1.05-0.01,1.7,0.37,2.2,1.29
			c0.82,1.5,1.63,3.04,2.66,4.4c3.1,4.09,7.46,5.96,12.38,6.8c1.89,0.32,3.73,0.54,5.34-0.84c-0.64,1.36-1.94,1.6-3.14,1.47
			c-4.17-0.47-8.23-1.37-11.68-4.01c-2.06-1.57-3.68-3.51-4.92-5.75c-1.67-3-1.64-3-5.05-3.16c-5.48-0.25-10.2-2.28-14.09-6.16
			c-1.01-1.01-1.9-2.16-2.95-3.12c-0.52-0.48-1.26-0.89-1.95-0.98c-2.2-0.27-4.43-0.44-6.65-0.52c-4.54-0.17-8.57-1.56-11.93-4.69
			c-0.61-0.57-1.22-0.61-1.81-0.11c-0.79,0.66-1.51,1.4-2.27,2.1C229.99,112.45,229.77,112.6,229.56,112.76z"/>
		<path class="st2" d="M312.03,232.56c-0.2,0.33-0.37,0.68-0.61,0.98c-8.13,10.37-14.95,21.48-19.43,33.94
			c-0.89,2.47-1.55,5.03-2.28,7.56c-0.5,1.73-0.11,2.82,1.09,3.39c1.28,0.6,2.3,0.2,3.39-1.34c-0.32,1.54-1,1.95-2.93,1.79
			c-1.19-0.1-2.18-1.01-2.03-2.22c0.19-1.65,0.56-3.29,1.02-4.88c2.17-7.43,5.18-14.52,9.24-21.09c3.39-5.48,7.09-10.77,10.69-16.12
			C310.69,233.82,311.41,233.22,312.03,232.56z"/>
		<path class="st2" d="M285.25,246.28c-0.82,0.75-1.72,1.42-2.45,2.25c-7.75,8.78-13.86,18.57-18.13,29.5
			c-0.59,1.5-0.32,2.82,0.71,3.49c1.03,0.67,2.17,0.41,3.39-0.78c-0.18,1.17-1.15,1.38-2.03,1.47c-1.11,0.11-1.99-0.44-2.49-1.48
			c-0.44-0.91-0.34-1.76,0.03-2.72c2.91-7.51,6.73-14.52,11.43-21.03c2.46-3.4,5.24-6.58,7.93-9.81
			C284.01,246.72,284.7,246.56,285.25,246.28z"/>
		<path class="st2" d="M231.46,133.23c-0.37,0.7-0.84,1.36-1.1,2.1c-2.93,8.02-5.82,16.05-8.74,24.07
			c-0.85,2.34-0.57,3.06,1.75,4.08c2.83,1.24,5.83,1.62,8.87,1.82c1.02,0.07,1.86-0.35,2.47-1.19c-0.19,1.05-0.94,1.49-1.88,1.48
			c-3.53-0.05-6.99-0.48-10.2-2.08c-1.87-0.93-2.22-1.94-1.46-3.9c1.49-3.87,3.01-7.72,4.42-11.62c1.57-4.35,3.01-8.75,4.58-13.1
			C230.38,134.27,231.01,133.78,231.46,133.23z"/>
		<path class="st1" d="M280.26,236.83c4.37-2.93,8.62-6.07,13.15-8.72c3.49-2.05,7.29-3.6,11.04-5.17
			c4.15-1.74,8.18-0.46,12.14,0.93c1.04,0.37,1.36,1.22,0.76,2.11c-0.72,1.07-1.64,2.01-2.47,3c0.52-0.73,1.01-1.5,1.58-2.19
			c1.28-1.56,1.12-2.3-0.83-2.88c-1.9-0.57-3.81-1.21-5.77-1.47c-1.28-0.17-2.66,0.19-3.96,0.46c-4.25,0.87-8.02,2.95-11.68,5.1
			c-4.59,2.7-8.94,5.79-13.4,8.7C280.67,236.8,280.44,236.79,280.26,236.83z"/>
		<path class="st2" d="M230.49,182.67c-1.46,0.55-2,1.66-2.06,3.16c-0.23,5.68,3.5,9.83,9.25,10.25c1.86,0.14,3.73,0.26,5.68,0.4
			c0,3.21,0,6.32,0,9.42c0,0.76-0.01,1.52,0.01,2.28c0.03,1.62,0.64,2.59,1.81,2.9c1.18,0.31,2.14-0.23,2.94-1.66
			c-0.14,1.34-1.08,2.08-2.55,2.02c-1.45-0.06-2.44-1.03-2.45-2.52c-0.02-3.31-0.01-6.63-0.01-9.94c0-2.38,0-2.33-2.45-2.43
			c-1.62-0.07-3.25-0.18-4.84-0.46c-4.34-0.77-7.19-3.89-7.56-8.31c-0.1-1.26,0.07-2.57,0.32-3.82
			C228.76,183.07,229.51,182.59,230.49,182.67z"/>
		<path class="st2" d="M202.92,240.44c3.82-2.38,7.55-4.9,11.46-7.12c7.53-4.26,15.15-8.34,22.73-12.52
			c0.51-0.28,0.95-0.71,1.42-1.07c-0.22,0.35-0.35,0.84-0.67,1.02c-4.55,2.64-9.1,5.27-13.7,7.83c-5.92,3.29-11.89,6.51-17.82,9.78
			C205.17,239,204.06,239.75,202.92,240.44z"/>
		<path class="st2" d="M248.15,209.28c0-4.28,0-8.56,0.01-12.83c0-0.07,0.05-0.15,0.12-0.33c3.58-0.48,7.22-0.95,10.85-1.46
			c2.85-0.4,5.69-0.87,8.54-1.27c3.23-0.46,5.85-2.03,8.07-4.35c0.47-0.49,0.96-0.96,1.44-1.44c-0.74,0.9-1.41,1.88-2.25,2.68
			c-2.33,2.23-5.23,3.21-8.37,3.64c-3.77,0.51-7.52,1.12-11.29,1.64c-2.23,0.31-4.47,0.54-6.86,0.82c0,0.66,0,1.24,0,1.83
			c0,3.28,0.01,6.55-0.01,9.83C248.39,208.46,248.23,208.87,248.15,209.28z"/>
		<path class="st2" d="M329.35,228.99c-1.64,1.8-1.41,3.27,0.7,4.56c1.77,1.08,3.57,2.12,5.26,3.32c3.85,2.74,4.86,6.47,2.74,10.69
			c-1.17,2.33-2.75,4.46-4.15,6.67c0.8-1.36,1.59-2.72,2.39-4.08c1.07-1.82,2.13-3.62,2.42-5.79c0.27-2.01-0.32-3.69-1.52-5.2
			c-1.7-2.14-4.13-3.34-6.38-4.75c-0.54-0.34-1.11-0.63-1.65-0.96c-1.2-0.74-1.24-1.95-1-3.08
			C328.25,229.84,328.93,229.44,329.35,228.99z"/>
		<path class="st2" d="M228.72,106.32c-0.07,0.13-0.12,0.29-0.23,0.38c-4.62,3.99-5.72,9.21-5.21,14.98
			c0.23,2.62,0.81,5.13,2.43,7.29c0.67,0.89,1.41,1.68,2.65,1.55c1.3-0.14,1.89-1.06,2.24-2.19c0.14,1.11-0.37,1.91-1.34,2.29
			c-0.99,0.39-2.05,0.42-2.92-0.39c-1.7-1.59-2.62-3.65-2.99-5.87c-0.64-3.91-0.86-7.85,0.57-11.67c0.88-2.35,2.22-4.42,4.15-6.06
			C228.26,106.47,228.5,106.42,228.72,106.32z"/>
		<path class="st2" d="M268.93,232.04c6.59-5.36,13.8-9.71,21.56-13.17c1.51-0.67,2.96-1.51,4.43-2.27
			c-0.44,0.44-0.81,1.07-1.34,1.29c-6.1,2.52-11.91,5.58-17.42,9.2c-2.16,1.42-4.2,3.02-6.31,4.52
			C269.59,231.81,269.24,231.9,268.93,232.04z"/>
		<path class="st2" d="M255.2,319.95c-1,0.73-1.47,1.66-1.07,2.9c0.42,1.29,1.5,1.6,2.67,1.6c9.06,0.02,18.12,0.03,27.18-0.03
			c0.78,0,1.55-0.51,2.32-0.78c-0.36,1.07-1.25,1.08-2.15,1.08c-8.79,0-17.57,0-26.36,0c-0.6,0-1.2,0.03-1.8-0.01
			c-1.22-0.08-2.16-1-2.29-2.19C253.52,321.12,253.98,320.35,255.2,319.95z"/>
		<path class="st2" d="M270.21,96.56c-1.65-0.25-2.5,0.2-2.92,1.53c-0.4,1.28,0.11,2.31,1.52,2.97c0.9,0.42,1.86,0.74,2.74,1.19
			c4.56,2.31,7.34,5.93,7.88,11.08c0.1,0.92-0.2,1.89-0.32,2.83c0.19-3.14-0.32-6.07-2.13-8.76c-2.02-3-4.86-4.73-8.16-5.91
			c-1.95-0.69-2.55-2.68-1.41-4.38C268.03,96.19,269.12,95.98,270.21,96.56z"/>
		<path class="st1" d="M237.91,256.6c-1.47,2.08-3,4.13-4.41,6.26c-3.22,4.87-6.38,9.77-9.55,14.66c-0.33,0.51-0.6,1.15-1.31,0.42
			c0.42-0.31,0.96-0.54,1.23-0.95c3.12-4.72,6.16-9.49,9.28-14.2c1.29-1.96,2.71-3.83,4.1-5.72
			C237.41,256.87,237.69,256.76,237.91,256.6z"/>
		<path class="st2" d="M287.31,183.61c-1.2,0.57-1.64,1.61-1.65,2.84c-0.02,6.84-0.05,13.68,0.02,20.52
			c0.02,2.43,1.8,3.34,3.97,2.19c-0.37,1-1.3,1.02-1.99,0.79c-0.76-0.26-1.44-0.87-2.01-1.46c-0.27-0.29-0.28-0.9-0.28-1.37
			c-0.02-6.94-0.02-13.89-0.01-20.83C285.37,184.68,286,183.85,287.31,183.61z"/>
		<path class="st2" d="M311.1,155.57c-0.31,0.31-0.61,0.62-0.92,0.93c-0.82,0.81-1.05,1.77-0.37,2.7c3.14,4.31,1.75,8.45-0.6,12.42
			c-0.86,1.45-2.28,2.57-3.45,3.83c1.11-1.4,2.4-2.69,3.3-4.21c1.58-2.66,2.82-5.52,1.95-8.72c-0.32-1.16-1.08-2.21-1.6-3.32
			C308.67,157.65,309.39,156.11,311.1,155.57z"/>
		<path class="st2" d="M247.43,92.16c0.16-0.13,0.35-0.39,0.48-0.37c7.06,1.45,11.75,7.34,11.58,14.1
			c-0.01,0.23-0.35,0.46-0.54,0.68c0-1.17,0.19-2.38-0.03-3.51c-1.07-5.47-5.26-9.45-10.54-10.86
			C248.09,92.12,247.75,92.17,247.43,92.16z"/>
		<path class="st2" d="M241.53,141.15c-0.17,0.09-0.35,0.19-0.52,0.28c-1.22,0.66-1.67,1.74-1.25,3c0.38,1.13,1.4,1.64,2.81,1.4
			c1.18-0.2,2.36-0.61,3.53-0.56c1.93,0.08,3.86,0.41,5.78,0.73c1.63,0.27,2.32,0.05,3.23-1.32c-0.09,1.27-0.95,1.77-2.03,1.68
			c-1.61-0.13-3.2-0.58-4.81-0.68c-1.44-0.09-2.9,0.08-4.34,0.18c-0.75,0.05-1.49,0.26-2.24,0.28c-1.49,0.03-2.34-0.85-2.41-2.36
			C239.21,142.2,239.98,141.29,241.53,141.15z"/>
		<path class="st2" d="M234.94,103c-0.39-0.43-0.29-0.68,0.27-0.8c5.16-1.15,10.12-1.13,14.46,2.49c1.37,1.14,2.24,1.17,3.73,0.1
			c-0.57,1.17-2.05,1.48-3.33,0.66c-1.1-0.71-2.11-1.58-3.26-2.17c-2.49-1.27-5.16-1.69-7.95-1.29c-1.09,0.16-2.19,0.29-3.28,0.5
			C235.35,102.53,235.16,102.82,234.94,103z"/>
		<path class="st2" d="M145.22,200.59c0.32,0.03,0.63,0.09,0.95,0.09c7.9,0,15.8,0,23.7,0c0.23,0,0.46,0,0.72,0c0-1.42,0-2.76,0-4.1
			c0.08,1.32,0.2,2.64,0.19,3.96c0,0.12-0.8,0.33-1.22,0.33c-7.63,0.02-15.26,0.01-22.89,0.01c-0.32,0-0.64,0.03-0.96-0.02
			C145.53,200.84,145.38,200.68,145.22,200.59z"/>
		<path class="st1" d="M258.47,112.35c-0.37-0.42-0.37-0.66,0.28-0.74c4.59-0.55,8.96-0.3,12.56,3.13c0.84,0.8,1.8,1,2.85,0.38
			c1.06-0.63,1.34-1.48,1.05-3.02c0.58,1.05,0.47,2.04-0.35,2.91c-0.7,0.74-2.15,0.95-3.12,0.44c-0.45-0.24-0.9-0.53-1.27-0.88
			c-1.92-1.83-4.24-2.62-6.83-2.72c-1.42-0.05-2.84-0.04-4.25,0.01C259.07,111.87,258.77,112.18,258.47,112.35z"/>
		<path class="st2" d="M231.93,170.91c-0.94,0.8-1.13,1.76-0.65,2.89c0.48,1.14,1.3,1.54,2.54,1.54c3.23,0,6.45,0.17,9.68,0.16
			c0.91,0,1.81-0.42,2.72-0.64c-0.34,1.01-1.24,1.06-2.05,1.05c-3.65-0.04-7.3-0.19-10.96-0.21c-2.07-0.01-3.05-2.97-2.21-4.2
			C231.17,171.21,231.61,171.1,231.93,170.91z"/>
		<path class="st2" d="M284.4,319.67c-9.36,0-18.72,0-28.08,0c0.42-0.08,0.83-0.22,1.25-0.22c8.53-0.01,17.06-0.01,25.58,0
			C283.57,319.45,283.98,319.59,284.4,319.67z"/>
		<path class="st2" d="M285.4,164.41c-1.04,0.57-1.65,1.41-1.46,2.62c0.2,1.28,1.17,1.86,2.31,2.14c3.8,0.93,6.98-0.37,9.8-2.83
			c0.72-0.62,1.34-1.36,2-2.04c-0.62,0.79-1.14,1.69-1.89,2.34c-3.12,2.75-6.69,3.87-10.79,2.58c-1.3-0.41-1.88-1.49-1.68-3.04
			C283.82,165.22,284.23,164.43,285.4,164.41z"/>
		<path class="st2" d="M296.38,319.33c-0.06-0.51-0.16-1.01-0.16-1.52c0-7.14,0.01-14.27,0.01-21.41c0-0.71-0.09-1.43-0.14-2.14
			c0.11,0.32,0.3,0.63,0.3,0.95C296.4,303.25,296.39,311.29,296.38,319.33z"/>
		<path class="st2" d="M229.08,329.24c1.35-1.4,3.05-2.13,4.9-2.57c3.02-0.72,6.06-1.39,9.07-2.16c0.78-0.2,1.48-0.71,2.21-1.08
			c-0.22,1.25-1.37,1.25-2.21,1.46c-3.19,0.81-6.44,1.42-9.62,2.27c-1.2,0.32-2.28,1.09-3.41,1.65
			C229.71,328.98,229.39,329.1,229.08,329.24z"/>
		<path class="st2" d="M155.52,174.78c0.07,0.24,0.19,0.48,0.19,0.72c0.01,6.76,0.01,13.53,0,20.29c0,0.24-0.13,0.48-0.19,0.72
			C155.52,189.27,155.52,182.03,155.52,174.78z"/>
		<path class="st2" d="M261.39,247.44c-0.86,1.13-1.73,2.26-2.58,3.39c-0.29,0.38-0.59,0.76-0.83,1.17
			c-0.73,1.24-0.57,2.45,0.39,3.25c0.96,0.8,2.16,0.7,3.25-0.26c0.24-0.21,0.46-0.44,0.69-0.66c-0.4,1.23-1.64,1.96-2.97,1.74
			c-1.32-0.21-2.11-1.03-2-2.36c0.07-0.82,0.33-1.73,0.8-2.38C259.1,249.95,260.28,248.72,261.39,247.44z"/>
		<path class="st2" d="M256.08,236.64c-0.21,0.27-0.4,0.56-0.64,0.8c-3.12,3.12-6.25,6.23-9.38,9.34c0.14-0.31,0.22-0.68,0.44-0.91
			c2.91-2.94,5.84-5.87,8.78-8.79C255.49,236.89,255.81,236.79,256.08,236.64z"/>
		<path class="st2" d="M241.56,302.44c-0.25,0.95-0.7,1.89-0.72,2.84c-0.07,4.4-0.01,8.8-0.03,13.2c0,0.66,0.23,1.52-0.82,1.7
			c0.16-0.56,0.46-1.11,0.46-1.67c0.04-4.59,0.01-9.19,0.03-13.78C240.49,303.81,240.44,302.84,241.56,302.44z"/>
		<path class="st2" d="M243.65,86.42c-1.24,0.67-1.67,1.72-1.48,3.09c0.14,0.98,0.24,1.97,0.4,2.95c0.22,1.39,0.98,2.18,2.18,2.29
			c1.17,0.11,2.05-0.56,2.51-1.9c0.04-0.11,0.1-0.21,0.16-0.32c0,1.31-0.67,2.27-1.73,2.5c-1.51,0.32-2.9-0.22-3.17-1.57
			c-0.37-1.8-0.51-3.67-0.52-5.51C241.99,87.13,242.58,86.37,243.65,86.42z"/>
		<path class="st2" d="M245.44,323.01c0.04-1.16,0.13-2.31,0.13-3.47c0-5.23-0.03-10.47-0.04-15.7c0.08,0.37,0.23,0.75,0.23,1.12
			c0.02,5.62,0.02,11.25,0,16.87C245.75,322.23,245.55,322.62,245.44,323.01z"/>
		<path class="st2" d="M281.13,173.55c-0.69,0.68-1.53,1.27-2.04,2.07c-1.53,2.38-2.93,4.86-4.41,7.28
			c-0.28,0.45-0.71,0.81-1.08,1.21c1.2-1.96,2.4-3.92,3.58-5.88c0.74-1.23,1.36-2.53,2.2-3.68
			C279.75,174.04,280.54,173.87,281.13,173.55z"/>
		<path class="st2" d="M252.12,247.64c2.91-2.91,5.82-5.81,8.72-8.72c-0.04,0.11-0.04,0.26-0.11,0.33
			c-2.75,2.77-5.51,5.52-8.28,8.28C252.38,247.61,252.23,247.61,252.12,247.64z"/>
		<path class="st2" d="M75.84,174.81c0.04,0.35,0.12,0.69,0.12,1.04c0.03,5.22,0.05,10.44,0.08,15.66
			c-0.07-0.42-0.19-0.84-0.19-1.26C75.83,185.1,75.84,179.96,75.84,174.81z"/>
		<path class="st2" d="M80.87,189.63c-0.04-2.47-0.11-4.94-0.1-7.41c0-2.47,0.07-4.94,0.12-7.4
			C80.88,179.75,80.87,184.69,80.87,189.63z"/>
		<path class="st1" d="M272.58,243.31c2.57-2.17,5.13-4.34,7.7-6.5c-1.04,0.95-2.06,1.92-3.11,2.86c-1.24,1.11-2.49,2.2-3.76,3.27
			C273.18,243.13,272.86,243.19,272.58,243.31z"/>
		<path class="st1" d="M265.83,250.05c2.26-2.25,4.52-4.5,6.77-6.76c-1.5,1.57-2.98,3.16-4.5,4.71
			C267.39,248.73,266.59,249.37,265.83,250.05z"/>
		<path class="st2" d="M229.99,98.9c-1.17,0.87-1.31,1.99-0.79,3.27c0.22,0.55,0.36,1.14,0.65,1.66c0.63,1.14,0.21,1.82-0.88,2.26
			c1.11-0.82,0.69-1.75,0.33-2.8c-0.35-1.01-0.52-2.13-0.5-3.19C228.79,99.69,229.56,99.3,229.99,98.9z"/>
		<path class="st2" d="M299.16,186.92c2.28-1.6,4.56-3.19,6.84-4.79c-1.43,1.12-2.82,2.28-4.29,3.35
			C300.92,186.05,300.01,186.45,299.16,186.92z"/>
		<path class="st2" d="M333.91,254.2c-1.61,2.01-3.21,4.01-4.82,6.02c0.44-0.63,0.87-1.27,1.33-1.88c0.96-1.27,1.92-2.52,2.9-3.77
			C333.47,254.41,333.72,254.33,333.91,254.2z"/>
		<path class="st2" d="M329.11,260.2c-1.78,1.75-3.57,3.5-5.35,5.25C325.54,263.71,327.33,261.96,329.11,260.2z"/>
		<path class="st2" d="M201.12,175.45c0.07,1.28,0.14,2.55,0.2,3.83c0.02,0.51,0,1.03,0,1.68c1.47,0,2.91,0,4.36,0
			c-1.37,0.08-2.73,0.19-4.1,0.19c-0.15,0-0.43-0.59-0.43-0.91C201.1,178.63,201.12,177.04,201.12,175.45z"/>
		<path class="st2" d="M290.32,207.81c0.03-3.27,0.06-6.54,0.1-9.81c0.08,0.22,0.22,0.43,0.22,0.65c0.01,2.82,0.02,5.64,0,8.47
			C290.62,207.35,290.42,207.58,290.32,207.81z"/>
		<path class="st2" d="M292.44,192.92c1.64-1.52,3.28-3.04,4.92-4.55C295.72,189.89,294.08,191.41,292.44,192.92z"/>
		<path class="st2" d="M263.17,236.84c1.56-1.27,3.12-2.55,4.68-3.82C266.28,234.29,264.72,235.57,263.17,236.84z"/>
		<path class="st1" d="M241.46,252c-1.19,1.54-2.38,3.09-3.57,4.63C239.08,255.08,240.27,253.54,241.46,252z"/>
		<path class="st1" d="M212.36,270.6c-1.31-1.31-2.61-2.62-3.92-3.92C209.75,267.98,211.06,269.29,212.36,270.6z"/>
		<path class="st2" d="M267.37,241.2c-1.28,1.29-2.56,2.57-3.85,3.86C264.8,243.77,266.08,242.49,267.37,241.2z"/>
		<path class="st2" d="M80.88,170.55c-0.04-1.86-0.08-3.73-0.13-5.59c-0.01-0.51-0.07-1.02-0.11-1.54c0.08,0.25,0.22,0.49,0.22,0.74
			C80.89,166.29,80.88,168.42,80.88,170.55z"/>
		<path class="st2" d="M265.32,286.82c-2.48,0-4.96,0-7.44,0C260.36,286.82,262.84,286.82,265.32,286.82z"/>
		<path class="st1" d="M246.08,246.77c-1.14,1.27-2.29,2.54-3.44,3.81C243.79,249.31,244.93,248.04,246.08,246.77z"/>
		<path class="st2" d="M307.34,180.93c1.22-1.22,2.44-2.44,3.67-3.66c-0.89,1.05-1.76,2.12-2.68,3.14
			C308.09,180.67,307.67,180.76,307.34,180.93z"/>
		<path class="st2" d="M297.65,220.34c-1.62,0.79-3.23,1.58-4.85,2.36C294.42,221.91,296.03,221.12,297.65,220.34z"/>
		<path class="st2" d="M322.5,273.07c1.3-1.03,2.6-2.06,3.91-3.09C325.1,271,323.8,272.03,322.5,273.07z"/>
		<path class="st1" d="M275.81,117.14c-1.11,0.56-1.48,1.55-1.5,2.71c-0.01,0.67-0.18,1.08-0.95,0.87c0.24-0.49,0.58-0.96,0.7-1.48
			C274.3,118.22,274.41,117.17,275.81,117.14z"/>
		<path class="st2" d="M76.08,164.64c-0.04,1.54-0.07,3.09-0.13,4.63c-0.01,0.43-0.08,0.85-0.12,1.27c0-1.6-0.01-3.19,0.01-4.79
			C75.86,165.39,76,165.01,76.08,164.64z"/>
		<path class="st2" d="M224.04,222.75c-1.4,0.7-2.8,1.4-4.19,2.1C221.24,224.16,222.64,223.46,224.04,222.75z"/>
		<path class="st1" d="M130.87,186.03c-0.5,2.11-0.83,4.29-1.55,6.33c-0.9,2.53-2.88,4.06-5.5,4.67c-6.41,1.5-11.23-1.95-12.19-8.71
			c-0.37-2.64-0.26-5.25,0.45-7.82c1.08-3.88,3.54-5.97,7.55-6.44c4.09-0.48,7.49,1.21,9.35,4.62c1.24,2.27,1.6,4.73,1.61,7.27
			C130.67,185.97,130.77,186,130.87,186.03z"/>
	</g>
</g>
</svg>
